<svg xmlns="http://www.w3.org/2000/svg" xmlns:xlink="http://www.w3.org/1999/xlink" viewBox="0 0 1114.87 242.9"><defs><style>.cls-1{fill:url(#linear-gradient);}.cls-2{fill:url(#linear-gradient-2);}.cls-3{fill:url(#linear-gradient-3);}.cls-4{fill:url(#linear-gradient-4);}.cls-5{font-size:85px;fill:#f90000;font-family:GROBOLD, GROBOLD;}</style><linearGradient id="linear-gradient" x1="8.25" y1="165.3" x2="311.16" y2="165.3" gradientUnits="userSpaceOnUse"><stop offset="0" stop-color="#fff"/><stop offset="0" stop-color="#3f00e9"/><stop offset="1"/></linearGradient><linearGradient id="linear-gradient-2" x1="804.42" y1="165.31" x2="1106.7" y2="165.31" xlink:href="#linear-gradient"/><linearGradient id="linear-gradient-3" x1="216.34" y1="96.26" x2="896.83" y2="96.26" xlink:href="#linear-gradient"/><linearGradient id="linear-gradient-4" x1="0" y1="121.45" x2="1114.87" y2="121.45" xlink:href="#linear-gradient"/></defs><title>Gameover</title><g id="Layer_2" data-name="Layer 2"><g id="Layer_4" data-name="Layer 4"><path class="cls-1" d="M271.67,196.27c-11.35-3.39-24.81-5.11-34.88-12.24a12.33,12.33,0,0,1-5.65-3.45c-5.36-5.55-8.21-12.38-10.15-20.06-5.32-21,.9-42.19-.5-63.31C183,82.54,144.63,99.92,108.58,111.07c-17.53,5.42-35.69,8.62-54,7.87-8.34-.34-16.61-1.26-24.58-4.09-7.25-2.58-14.4-5.54-21.78-7.58,18.92,16.89,39,31.81,62.41,40.46a180.58,180.58,0,0,0,40.8,10.33c13.62,1.64,27.43.63,41.08-.21a2,2,0,0,1,1,3.83c-24.51,13.56-50.18,24.89-76,35.13-12.33,4.89-24.55,10.14-36.95,14.83-10.24,3.87-20.71,4.87-31.38,5.87,7.52,5.75,17.81,9.25,26.08,12.36C49,235,62.6,238.69,77.2,239a167.22,167.22,0,0,0,44.65-4.77c14.39-3.67,28.15-9.51,42.35-13.89,46.68-14.42,99.42-9.24,146.95.07-5.5-4.14-10.57-9-16.26-12.89A83.33,83.33,0,0,0,271.67,196.27Z"/><path class="cls-2" d="M890.58,175.77a42.22,42.22,0,0,1-11,9.82c-9.86,6.92-23.27,7.57-34.38,10.49a74.08,74.08,0,0,0-27.07,13.17c-4.58,3.55-9,7.51-13.68,11,48.26-9.4,101.87-14.47,149.06.94,14.13,4.62,27.95,10.57,42.46,13.72a167.84,167.84,0,0,0,44.72,4c14.36-.79,28-4.5,41.48-10,7.54-3.08,16.67-6.17,23.56-11.38-11.63-1.15-22.8-2.48-34-6.82-12.45-4.83-24.82-9.94-37.19-15-24.81-10.16-49.48-20.89-73.13-34-1.86-1-1.24-4,.9-3.84,29.4,1.8,56.85,0,84.72-11.2,22.32-9,41.46-23.21,59.68-39.46-15.6,4-29.83,11.41-46.43,11.76a162,162,0,0,1-54-7.86C970.68,99.4,931.58,82.71,894.47,97.15c1.39,8.28,3,16.57,4.25,25C901.42,139.77,902.19,161.32,890.58,175.77Z"/><path class="cls-3" d="M679.42,181.61c13,2.27,26.13,3.48,39.25,4.75,12.8,1.25,25.21,2.66,38.07,1.17,11-1.28,21.94-2.9,32.93-4.29,9.6-1.21,18.82-2.92,28.51-1.52,16.57,2.4,37,9.71,53.44,4.14a44,44,0,0,0,7-3.34,33.8,33.8,0,0,0,9.25-9c14.4-20.2,8-44.29,4.54-67.08-1.92-12.67-4.16-25.57-4.8-38.4C887.1,58,891,48.28,889.69,38.29a1.82,1.82,0,0,1-.49-.63c-20.41-42.92-78-24-112-16.84-18.94,4-37.56,6.37-56.86,5.4-20.83-1-41.47-4.26-62-8.4-41-8.29-81.8-18.89-123.61-10.25-19.87,4.1-39.57,8.34-59.27,13.4-18.78,4.83-38.35,7.81-57.66,5.79C393.4,24.2,369.68,16.1,345.17,14.14c-25.13-2-50.58-6.56-75.71-2.62-13.24,2.07-26.3,5.08-39.36,8.17C216.59,22.89,215.44,39,216.75,51.1c2.13,19.77,8.72,38.58,7.49,58.72-.86,14.23-3.22,28.58-.94,42.79,1.55,9.67,4.8,23.9,14.49,27.73,3.33,1.31,9.79-1.81,13.09-2.68,3.06-.81,6.11-1.62,9.18-2.39,6.13-1.54,12.26-3.06,18.44-4.35,12.27-2.57,24.68-4.75,37.17-5.47,11.66-.67,24.82-1.58,36.25,1.43,11.15,2.94,22.07,6.12,33.45,7.8,26,3.83,52,5.41,78.16,3.32,25.53-2,49.66-9.73,74.77-14.48a198.84,198.84,0,0,1,72-.76A225.14,225.14,0,0,1,644,170.86C655.83,174.83,667.07,179.46,679.42,181.61Z"/><path class="cls-4" d="M1003.86,161.94a185.26,185.26,0,0,0,38.82-9.57c27.19-9.57,50-27,71.57-47.06,1.27-1.18.48-3.72-1.31-3.39-8.31,1.54-16.17,4.62-24.13,7.59a91.92,91.92,0,0,1-29,5.45c-23.06.89-44.41-5.37-66.22-12.61-31.88-10.58-66.94-21.59-99.73-9.18-2.26-14.28-3.7-28.55-1.74-43.29A40.63,40.63,0,0,0,892,38a1.57,1.57,0,0,0,.17-1.68c-3.27-7.32-7.42-14.66-13.86-19.07-8-5.47-18.15-8.28-27.41-9.77-23.79-3.84-48.11,3.41-71.25,8.51a239.34,239.34,0,0,1-77.45,4.65c-26-2.66-51.57-8.93-77.25-14.1-24.33-4.91-49.15-8.36-73.89-5.43-24.89,3-48.94,9.26-73.34,15.13-26,6.25-50.55,8.6-77,3.93-11.69-2.07-23.26-4.88-34.91-7.14-12.16-2.35-24.35-3-36.59-4.35s-24.75-2.38-37.17-2.88c-11.93-.48-23.75,1.57-35.47,3.8-17.35,3.3-39.27,3.52-43.49,25.88-3.42,18.15,4.11,37.77,6.71,55.52.09.61.14,1.23.22,1.84-32.49-11.85-67.25-1-98.81,9.55-21,7-41.11,12.61-63.25,12.65a94,94,0,0,1-29.34-4.59c-9-2.89-17.51-6.78-26.78-8.5-1.85-.34-2.51,2.26-1.26,3.42,20.88,19.38,42.71,35.94,68.7,46,24.67,9.53,49.2,11.77,74.84,10.89C123.85,172.88,102.86,182,81.8,190.79,70.23,195.62,58.59,200.24,47,205c-14.13,5.79-27.65,7.66-42.55,9.16-1.67.17-1.84,2.36-.8,3.39,6.75,6.77,16.8,10.17,25.26,13.75,11.41,4.83,23.59,8.95,35.78,10.52,27.42,3.54,55.07-2,81.07-11.17,29-10.23,57.17-15.12,87.65-14.64,28.39.45,56.33,5.34,84.48,8.73a1.23,1.23,0,0,0,1.31-.71,1.2,1.2,0,0,0,.35-.63,176.45,176.45,0,0,0,2.75-54.11c5.05-.17,10.12-.14,15.2.13,11.38.6,22,3.67,33,6.69,12.36,3.39,25.65,4.33,38.32,5.61,24.38,2.47,49.15,1.55,73.44-1.53,25.17-3.18,49.47-12.31,74.74-15.5,25.07-3.16,50.67.57,75.1,6.87,11.12,2.87,21.57,8,32.63,10.9,12.59,3.25,25.37,5,38.24,6.37,12,1.27,24.4,3.33,36.46,3.45a249.52,249.52,0,0,0,33.35-2.39c6.44-.81,12.89-1.85,19.32-2.91a59.56,59.56,0,0,0,.14,14.88,57.18,57.18,0,0,0,1.72,7.07c1.21,4.54,1.33,8.88,1.75,13.47-.58.93-.07,2.49,1.26,2.33,27.2-3.28,54.13-7.76,81.53-8.66a234.55,234.55,0,0,1,87.79,13.57c26.47,9.42,52.92,14.54,80.85,12.46,12.41-.92,24.65-5.26,36.3-9.8,9.22-3.6,20.51-7.49,27.79-14.8,1.05-1.05.76-3.21-.86-3.37-13.93-1.4-26.68-2.92-40-8.12-11.57-4.53-23-9.4-34.55-14.07-22-8.91-43.85-18.5-65-29.61C981.88,162.94,992.94,163.27,1003.86,161.94ZM164.21,220.31c-14.2,4.39-28,10.22-42.35,13.89A167.22,167.22,0,0,1,77.2,239c-14.6-.28-28.23-4-42-9.12-8.27-3.11-18.56-6.6-26.08-12.36,10.66-1,21.14-2,31.38-5.87,12.4-4.69,24.62-9.94,36.95-14.83,25.83-10.23,51.5-21.57,76-35.13a2,2,0,0,0-1-3.83c-13.65.84-27.45,1.85-41.08.21a180.58,180.58,0,0,1-40.8-10.33c-23.44-8.65-43.49-23.57-62.41-40.46,7.38,2,14.54,5,21.78,7.58,8,2.84,16.24,3.75,24.58,4.09,18.28.75,36.44-2.45,54-7.87C144.63,99.92,183,82.54,220.49,97.2c1.4,21.13-4.82,42.3.5,63.31,1.95,7.69,4.8,14.51,10.15,20.06a12.33,12.33,0,0,0,5.65,3.45c10.07,7.13,23.53,8.85,34.88,12.24A83.33,83.33,0,0,1,294.9,207.5c5.68,3.85,10.75,8.75,16.26,12.89C263.63,211.07,210.89,205.9,164.21,220.31ZM305.59,210c-2.45-1.9-5-3.7-7.57-5.39,2-4.28,2.75-9,3.32-13.77.77-6.39,2.27-13.53,1.59-19.94v0q4-.51,8.1-.87a264.35,264.35,0,0,1-3.13,27.14C307.16,201.09,305.78,205.67,305.59,210Zm-6.81-24.5c-.61,6-2.16,11.85-2.82,17.78-2.52-1.57-5.09-3-7.68-4.36,1.19-4,1.4-8.38,2-12.43.69-4.72,3.31-9.33,2.48-14.12q3.89-.65,7.79-1.18C299.22,175.77,299.26,180.74,298.78,185.5Zm-13.51,11.95c-2.62-1.23-5.25-2.33-7.86-3.26l-.14,0c1.79-6.14,3.46-13.28,3.57-19.53q4.74-1,9.49-1.81C288.5,180.76,285.21,189.06,285.27,197.45Zm-8.67-14.19c-.71,3.3-1.63,6.57-2.3,9.89q-2.43-.76-4.9-1.43c2.29-4.41,3.12-10.35,3.17-15.32q2.85-.65,5.71-1.26C277.6,177.81,277.18,180.56,276.6,183.26Zm-10.16,7.68-5.87-1.49a29.85,29.85,0,0,0,1.73-10.57q3.86-1,7.73-1.88C269.1,181.85,268.63,186.44,266.44,190.94Zm-8.63-2.2A94.78,94.78,0,0,1,244,184.16c4.5-.83,9.14-2.9,13.53-4l2.48-.64A33.64,33.64,0,0,1,257.81,188.74ZM320,201.45c-.77,5.94-3.68,12.45-3.16,18.57a107.08,107.08,0,0,0-8-7.38c1.19-4.73.93-10.4,1.85-15.11a132,132,0,0,0,2.64-27.72q3.18-.25,6.38-.4C319.85,180.08,321.39,190.86,320,201.45Zm436.72-13.91c-12.87,1.49-25.27.08-38.07-1.17-13.12-1.28-26.24-2.49-39.25-4.75-12.34-2.15-23.59-6.78-35.45-10.75a225.14,225.14,0,0,0-33.62-8.08,198.84,198.84,0,0,0-72,.76C513.19,168.29,489.06,176,463.53,178c-26.18,2.09-52.2.51-78.16-3.32-11.39-1.68-22.3-4.86-33.45-7.8-11.43-3-24.6-2.1-36.25-1.43-12.49.72-24.9,2.9-37.17,5.47-6.18,1.29-12.31,2.81-18.44,4.35-3.06.77-6.12,1.58-9.18,2.39-3.3.87-9.76,4-13.09,2.68-9.69-3.82-12.94-18.06-14.49-27.73-2.29-14.22.07-28.56.94-42.79,1.22-20.14-5.37-39-7.49-58.72-1.3-12.12-.16-28.21,13.35-31.42,13.06-3.1,26.12-6.1,39.36-8.17,25.13-3.94,50.59.61,75.71,2.62,24.51,2,48.23,10.06,72.69,12.62,19.31,2,38.88-1,57.66-5.79,19.7-5.07,39.41-9.3,59.27-13.4,41.81-8.63,82.61,2,123.61,10.25,20.49,4.14,41.12,7.35,62,8.4,19.31,1,37.93-1.43,56.86-5.4,34-7.12,91.57-26.07,112,16.84a1.82,1.82,0,0,0,.49.63c1.27,10-2.59,19.74-2.09,29.79.63,12.84,2.88,25.73,4.8,38.4,3.45,22.79,9.86,46.88-4.54,67.08a33.8,33.8,0,0,1-9.25,9,44,44,0,0,1-7,3.34c-16.46,5.57-36.87-1.74-53.44-4.14-9.69-1.4-18.91.31-28.51,1.52C778.68,184.63,767.75,186.26,756.74,187.53Zm50.53,9.26a92.08,92.08,0,0,1-2-11.83,50.81,50.81,0,0,1,8.47,0c-.39,2.63.45,6,.64,8.33.28,3.54,1,8.16,2.74,11.4-2.5,1.64-4.94,3.4-7.3,5.23C810,205.66,808.13,200.32,807.27,196.79Zm12.27,6.35c-.35-3.43-1.75-6.89-2.08-10.33-.19-2,.2-5.14-.29-7.53,2.81.35,5.62.84,8.41,1.41a22,22,0,0,0,.45,6.48,47.47,47.47,0,0,0,.84,5.83C824.4,200.27,821.95,201.65,819.54,203.15Zm10.61-5.73c-.14-1.22-.41-2.45-.57-3.62a34.48,34.48,0,0,0-1.12-6.49c3.2.69,6.37,1.42,9.48,2.07a10.27,10.27,0,0,0,.18,3c0,.49.05,1.13.1,1.78A80,80,0,0,0,830.15,197.41Zm11.13-4.18c-.15-.68-.32-1.35-.41-1.91s-.14-1-.25-1.43c3.08.58,6.15,1,9.18,1.32C846.92,191.8,844.06,192.44,841.28,193.24Zm-38.59-8h.06a32.15,32.15,0,0,0,1,9q1.2,4.51,2,9.12c.48,2.83.11,6.16,1.2,8.79a109.38,109.38,0,0,0-8.3,7.64c.43-4.06-.7-8.16-1.78-12.22-1.91-7.22-1.84-13.73-2.24-21.06Q798.66,185.92,802.69,185.28Zm159.6-27.42c-2.14-.13-2.77,2.81-.9,3.84,23.64,13.08,48.32,23.81,73.13,34,12.37,5.06,24.74,10.18,37.19,15,11.19,4.34,22.36,5.67,34,6.82-6.89,5.21-16,8.3-23.56,11.38-13.45,5.5-27.12,9.21-41.48,10a167.84,167.84,0,0,1-44.72-4c-14.51-3.15-28.33-9.1-42.46-13.72-47.19-15.42-100.8-10.34-149.06-.94,4.67-3.48,9.09-7.44,13.68-11a74.08,74.08,0,0,1,27.07-13.17c11.11-2.92,24.51-3.57,34.38-10.49a42.22,42.22,0,0,0,11-9.82c11.6-14.44,10.83-36,8.14-53.64-1.28-8.4-2.86-16.69-4.25-25,37.11-14.44,76.2,2.25,111.83,13.93a162,162,0,0,0,54,7.86c16.6-.34,30.83-7.71,46.43-11.76-18.22,16.25-37.36,30.46-59.68,39.46C1019.15,157.89,991.69,159.65,962.3,157.85Z"/><text class="cls-5" transform="translate(289 127.24)">GAME OVER</text></g></g></svg>