<svg xmlns="http://www.w3.org/2000/svg" viewBox="0 0 621.53 104.3"><defs><style>.cls-1{fill:#594a42;}.cls-2{fill:#eaebda;}</style></defs><title>Gameover2</title><g id="Layer_2" data-name="Layer 2"><g id="Layer_4" data-name="Layer 4"><path class="cls-1" d="M621.44,47.14c-.49-3.53-5.55-3.48-8.12-3.46a32.2,32.2,0,0,0-10.53,1.85c3.25-4.81,4.58-11.45,1.77-15.59-1.93-2.85-5.74-2.06-7.76.38-1.27,1.53-.36,4.15.14,5.76,1.58,5.07-.9,8.87-4.84,11.87a1,1,0,0,0-.1.11c-32.4.68-64.82.74-97.22.71q-22.86,0-45.72-.13c-7,0-14.09-.47-21,.29a.87.87,0,0,0,0,1.73c7.2,1,14.75.54,22,.57q23.16.11,46.32.11c32,0,64.08,0,96.12-.53a.89.89,0,0,0,.29.44c3,2.43,3.86,5.59,3.76,9.34-.07,2.62-1.33,4.77.59,6.88,2.28,2.51,6.17,1,8.09-1.07,2.88-3.1.07-9.29-1.81-12.1a13.62,13.62,0,0,0-1.16-1.49C609.56,55,622.75,56.67,621.44,47.14ZM599.46,35c-1.33-4.11,2.78-5.29,3.65-1.07a13.52,13.52,0,0,1-.75,7c-1.16,3.44-3.49,5.26-6.11,7.06H596A12,12,0,0,0,599.46,35Zm.64,31.18c-2.58,0-1.24-3.88-1.14-5.32a14.41,14.41,0,0,0-.44-5,11.78,11.78,0,0,0-1.75-3.68,13,13,0,0,1,4,3C603,57.77,606.19,66.25,600.1,66.21Zm16.7-15c-1.61.92-3.9.63-5.66.54A36.64,36.64,0,0,1,600.29,49c5-1.26,9.63-2.92,15-2.68l1,.1Q620.3,46.5,616.8,51.17Z"/><path class="cls-1" d="M193.71,48.92c-13.46-1.17-27.36,0-40.87.11q-22.11.21-44.22.15c-26.29-.05-52.59-.5-78.87-1.1a1,1,0,0,0-.13-.15c-3.1-2.36-6.49-6.1-5.19-10.41.64-2.13,1.38-3.2.67-5.41s-5.49-5.78-7.43-2.92c-2.94,4.33-2,11.33,1.17,16.33a38.74,38.74,0,0,0-9.65-1.81C5.89,43.46,2,43.56.38,46.83s2.22,6.78,5,7.33A28.33,28.33,0,0,0,19.32,53C16,56.8,14.2,62.13,16.39,66.13c1.54,2.81,5.61,3.24,8,1.56,2.11-1.48,1.14-3.85.9-5.93-.48-4.11.39-7.87,3.69-10.52a.86.86,0,0,0,.27-.4q39.52.77,79,.9,19.62.07,39.24-.08c15.22-.1,31.05.84,46.17-1A.87.87,0,0,0,193.71,48.92Zm-175.09-15c.52-4.19,4.86-2.12,4,.87-.93,3.22-1.47,4.9-.37,8.28A10.66,10.66,0,0,0,25.7,48h-.16c-2.62-1.85-4.73-3.6-6.18-7.09A13.75,13.75,0,0,1,18.62,33.94ZM6.94,51.7q-4.55-.15-3.09-4.93a10.64,10.64,0,0,1,2.61-.46c5.25-.52,10.05,1.37,15,2.67a45,45,0,0,1-9.4,2.59A24.06,24.06,0,0,1,6.94,51.7ZM23.2,55.87a12.73,12.73,0,0,0-.46,3.86c0,1.94,1.53,6-1.13,6.49-3,.56-3.62-3-3.36-5.15A12.39,12.39,0,0,1,21,55.19,10.9,10.9,0,0,1,25.08,52,11.65,11.65,0,0,0,23.2,55.87Z"/><path class="cls-2" d="M401.58,91.41c15.63-.16,31.27-.55,46.8-.65,10.51-.07,21-.23,31.59-.4h.15c21.21-.33,42.45-.67,63.63-.28h0q7.25.13,14.49.39c-19.71-12.4-36.72-29.07-57.5-39.68a1.31,1.31,0,0,1-.56-2c9.24-10.75,22.27-15.12,33-23.8,8-6.5,15-14.62,23.16-21C537.83,8,518.79,6.77,500,5.21a450.77,450.77,0,0,0-57.8-.72c-35.33,1.56-70.65,2.3-106,3-46.68.91-93.4-.33-140.09.08-23.06.2-46.13,1.09-69.19,0-11-.52-22-.67-33-1.16-7.37-.33-14.92-1-22.31-.35,3.61,3.75,7,7.94,11.23,10.86,4.58,3.15,7.94,8,12.5,10.93s9.28,4.27,13.36,8.14,7.77,7.7,12.66,10.79a1.61,1.61,0,0,1,0,2.55c-16.54,11.75-28.3,29.69-45,41.15l18.92.94c25.17,1.24,50.33,2.52,75.53,1.88,22.31-.57,44.58-1.73,66.9-1.73,18.64,0,37.75-1.23,56.35,0,10.28.7,20.78,0,31.06-.23,6.06-.14,12.12-.29,18.18-.49,2.06-.07,6.1.21,7.57-.24a1.56,1.56,0,0,1,.7-.12c15.91.93,31.94,1,48,.9a.81.81,0,0,1,.17-.05A8.35,8.35,0,0,1,401.58,91.41Z"/><path class="cls-1" d="M564.4,90.92C543,78.5,525.14,60.82,503.28,49.23c8.92-9.69,21.12-14.36,31.48-22.2,10.12-7.66,17.62-18.17,28.58-24.83,1.33-.81,0-2.51-1.26-2.16-23,6.43-46.63,3.38-70,1.46C475.19.12,458.62.66,441.76,1.38c-35.34,1.5-70.66,2.13-106,2.89-46.67,1-93.39-.25-140.06.24-23.74.25-47.45,1.1-71.19,0-10.74-.48-21.49-.63-32.23-1-7.65-.29-15.54-.81-23.17.14C67.66,2.66,66,5,67.43,6.33c8.66,8.07,16.83,16.55,26,24.07,4.43,3.65,10,4.73,14.2,9a68.19,68.19,0,0,0,10,8.67C100.82,60.74,88.83,79.78,70.54,90.34c-1.25.72-1.4,3,.43,3.13,28.81,1.4,57.69,3.22,86.54,3,23.41-.17,47.35-2,70.18-2,39,0,78.05.52,117.06-.77,2.09-.07,4.72.22,6.82-.31,31.1,1.77,62.67.48,93.79,0,39.25-.6,78.81-1.72,118,0C564.64,93.51,565.74,91.7,564.4,90.92Zm-116-.16c-32.15.21-64.73,1.65-96.85-.22a1.56,1.56,0,0,0-.7.12c-1.47.45-5.51.18-7.57.24-6.06.2-12.12.35-18.18.49-10.29.24-20.79.93-31.06.23-18.6-1.28-37.71,0-56.35,0-22.32,0-44.59,1.16-66.9,1.73-25.21.64-50.36-.63-75.53-1.88l-18.92-.94c16.73-11.46,28.48-29.4,45-41.15a1.61,1.61,0,0,0,0-2.55c-4.89-3.09-8.51-6.85-12.66-10.79s-8.75-5.14-13.36-8.14-7.92-7.78-12.5-10.93C78.56,14,75.19,9.81,71.58,6.05c7.39-.61,14.94,0,22.31.35,11,.49,22,.64,33,1.16,23.05,1.09,46.12.2,69.19,0,46.69-.41,93.41.83,140.09-.08,35.35-.69,70.67-1.43,106-3a450.77,450.77,0,0,1,57.8.72C518.79,6.77,537.83,8,556.33,4c-8.19,6.36-15.12,14.48-23.16,21-10.73,8.68-23.76,13.06-33,23.8a1.31,1.31,0,0,0,.56,2c20.78,10.61,37.79,27.28,57.5,39.68C521.73,89.14,484.91,90.52,448.38,90.76Z"/><path class="cls-1" d="M74,92.49c.77,2.44,3.71,4.5,5.6,6.08,1.08.9,2.31,1.62,3.42,2.49.92.72,1.43,2,2.58,2.35a.87.87,0,0,0,1.08-.47c1.14-2.21-2.69-4.42-4.13-5.41C80,95.73,78,93.11,75.42,91.39a.93.93,0,0,0-1.4,1.1Z"/><path class="cls-1" d="M85.58,92.93c1.25,2.3,3.84,3.35,5.86,4.86,2.62,2,4.44,4.54,7.39,6.18,1,.55,1.75-1,.93-1.67-2.28-1.85-4.34-3.83-6.44-5.88-1.81-1.77-4.34-3-6.33-4.59-.69-.55-1.86.28-1.42,1.11Z"/><path class="cls-1" d="M98,94.11a27.07,27.07,0,0,0,6.11,5.06c2.19,1.41,5.14,1.71,7,3.58a.7.7,0,0,0,1.11-.87c-1.32-1.86-3.29-2.52-5.31-3.42-2.92-1.3-5-4-7.72-5.61-.81-.46-1.93.43-1.23,1.26Z"/><path class="cls-1" d="M111.61,103.14c.74,0,.89-1.15.14-1.15s-.89,1.15-.14,1.15Z"/><path class="cls-1" d="M111.31,95.17c3.29,3.08,5.68,6.7,10.11,8.34.64.23,1.4-.59.85-1.14-1.65-1.69-3.72-2.88-5.36-4.57-1.49-1.54-2.66-3.41-4.58-4.45-1.14-.62-1.81,1.08-1,1.83Z"/><path class="cls-1" d="M122.84,95c1.49,2.42,4.16,3,6.39,4.44,2,1.27,3.46,3.52,5.69,4.31a.72.72,0,0,0,.69-1.23c-1.8-1.48-3.47-3.1-5.25-4.59-1.94-1.63-3.89-3.61-6.27-4.58A1.08,1.08,0,0,0,122.84,95Z"/><path class="cls-1" d="M132.59,95.28a9,9,0,0,0,2.11,1.37,20,20,0,0,1,3.19,2.47c1.78,1.57,3.07,3.61,5.49,4.24.61.16,1.54-.4,1.11-1.13-1.36-2.33-3.51-3.81-5.56-5.52-1.49-1.25-3.93-3.37-6-2.6a.76.76,0,0,0-.31,1.16Z"/><path class="cls-1" d="M144.68,95.75c1.75,1.19,3.69,2,5.39,3.28,1.94,1.51,3.68,3.22,5.52,4.84.84.74,2.13-.59,1.37-1.41a49.8,49.8,0,0,0-5.58-5.21c-1.71-1.36-4-3.07-6.31-3a.85.85,0,0,0-.39,1.51Z"/><path class="cls-1" d="M155.58,95.68c.35,1.74,2,2.94,3.35,3.89,1.86,1.26,3.41,2.94,5.31,4.14,1,.65,2.19-.89,1.14-1.54-1.65-1-2.92-2.5-4.46-3.67a47.39,47.39,0,0,1-4-3.63c-.54-.52-1.5.12-1.37.81Z"/><path class="cls-1" d="M165.61,94.56A2.26,2.26,0,0,0,167,96.2a17.07,17.07,0,0,1,3.13,2.1c2,1.76,3.9,4.23,6.3,5.43,1.29.65,2.16-1.48.83-2.09-1.93-.89-3.75-3.14-5.31-4.56a35.26,35.26,0,0,0-5-3.32c-.53-.35-1.53,0-1.33.78Z"/><path class="cls-1" d="M176.19,95.19a2.3,2.3,0,0,0,1,1.53,15.94,15.94,0,0,1,2.42,2.38,29,29,0,0,0,4.82,4.38,1,1,0,0,0,1.55-.91,2.65,2.65,0,0,0-1.07-1.62c-1-.8-1.86-1.55-2.75-2.44s-1.53-1.8-2.38-2.6a14.5,14.5,0,0,0-2.24-1.54c-.59-.37-1.55,0-1.4.82Z"/><path class="cls-1" d="M185.18,95.18A6.2,6.2,0,0,0,186.86,97c1,.83,1.77,1.95,2.78,2.8s2.07,1.53,3,2.41c.68.64,1.16,1.28,2.16,1.12a.82.82,0,0,0,.64-1.11c-.5-1.52-2.83-2.86-4-3.84-1.71-1.41-2.89-3.15-4.79-4.36-.71-.45-1.94.23-1.44,1.13Z"/><path class="cls-1" d="M193.53,94.58c.5,2,2.55,3,4.29,3.78a19.05,19.05,0,0,1,6.63,5.18c.55.61,1.71.05,1.31-.76a15.19,15.19,0,0,0-5.07-5.55c-1.81-1.29-3.82-2.16-5.51-3.61a1,1,0,0,0-1.65,1Z"/><path class="cls-1" d="M204.94,93.67c.32,2.56,3.56,3.95,5.22,5.62s3.53,4.3,6.16,4.75c1.05.18,1.36-1.15.7-1.75s-1.71-1.25-2.51-2c-1-.92-1.88-2-2.83-3a23.51,23.51,0,0,0-2.85-2.38,12.51,12.51,0,0,0-2.86-2,.76.76,0,0,0-1,.8Z"/><path class="cls-1" d="M215.17,93.39c2.39,4.39,7.68,6.44,11,10,.86.95,2.43-.25,1.58-1.23a35.64,35.64,0,0,0-5.38-4.9c-2-1.56-3.91-3.3-5.92-4.9-.61-.49-1.65.25-1.26,1Z"/><path class="cls-1" d="M227.55,94.08c1.46,4.63,7.83,7.28,11.54,9.79,1.08.73,2.29-.95,1.19-1.61-4.18-2.52-8.51-4.95-11.56-8.87a.69.69,0,0,0-1.17.69Z"/><path class="cls-1" d="M237,94.09c1.77,2,4.29,3.16,6.52,4.59s4.15,3.57,6.51,5a1.06,1.06,0,1,0,1-1.84c-2.32-1.26-4.13-3.34-6.26-4.87s-4.44-2.73-6.63-4.07c-.76-.47-1.84.44-1.17,1.2Z"/><path class="cls-1" d="M249.36,94.84c1.86,1.76,3.87,3.06,5.34,5.23,1,1.46,2.29,3.81,4.34,3.58a.85.85,0,0,0,.55-1.36c-.58-.76-1.45-1.17-2.08-1.92s-1.29-1.88-2-2.77c-1.3-1.62-3.18-3.82-5.22-4.44a1,1,0,0,0-.93,1.67Z"/><path class="cls-1" d="M259.25,94.15A21.38,21.38,0,0,1,263.9,98c.92.93,2,1.76,2.91,2.67a14.23,14.23,0,0,0,3.06,2.68c.67.35,1.34-.48,1.08-1.1-1.14-2.75-4.37-4.72-6.37-6.85-1.3-1.38-3.13-3.23-5.18-2.5a.73.73,0,0,0-.15,1.26Z"/><path class="cls-1" d="M271,93.93c2.67,1.75,5.73,3.06,8,5.34,1.28,1.25,3.4,4.51,5.52,4a.92.92,0,0,0,.42-1.62c-1.82-1.72-3.73-3.59-5.7-5.17s-5.23-4.09-7.94-3.85a.76.76,0,0,0-.35,1.36Z"/><path class="cls-1" d="M284,94.39c1.51,1.5,3.07,3,4.66,4.41.86.77,1.8,1.43,2.65,2.22a9.57,9.57,0,0,0,2.35,2.08.86.86,0,0,0,1.16-.91c-.35-2-2.68-3.13-4.09-4.35-1.82-1.57-3.48-3.39-5.45-4.79-.82-.58-2.06.56-1.29,1.32Z"/><path class="cls-1" d="M293.12,94.14c.31,2.13,2.18,2.88,4,3.65,2.81,1.19,4.41,3.48,6.77,5.29,1.06.82,2.16-1,.92-1.64-2.17-1.16-3.32-3.38-5.43-4.58-1.81-1-3.93-1.34-5.22-3.14a.58.58,0,0,0-1,.43Z"/><path class="cls-1" d="M302.22,93.61c4.77,1.88,6.65,9.13,11.87,10a.8.8,0,0,0,.57-1.42,52.53,52.53,0,0,1-6.1-5.83c-1.73-1.94-3.45-3.41-6.05-3.86a.58.58,0,0,0-.29,1.11Z"/><path class="cls-1" d="M315.39,94.78a22.38,22.38,0,0,1,6.07,3.6c2.33,1.84,4.9,3.39,7.2,5.24.8.64,1.62-.57.92-1.24-2.32-2.24-4.9-4.08-7.41-6.11-1.76-1.42-4.26-3.19-6.63-2.71a.64.64,0,0,0-.15,1.22Z"/><path class="cls-1" d="M328.32,94.29c1.42,2.28,4.34,3.53,6.38,5.22a37.15,37.15,0,0,0,6.34,4.17c.74.39,1.37-.8.7-1.26-4.2-2.93-7.92-6.61-12.35-9.22a.78.78,0,0,0-1.07,1.1Z"/><path class="cls-1" d="M338.46,94.06c2.18,1.51,4.55,2.71,6.74,4.23,2.39,1.65,4.56,3.73,7,5.24.79.48,1.94-.48,1.22-1.25-2-2.17-4.52-4-6.77-6a17.7,17.7,0,0,0-7.49-4,1,1,0,0,0-.72,1.8Z"/><path class="cls-1" d="M352.09,93.89a39.34,39.34,0,0,0,6.53,4c2.76,1.4,4.3,4.89,7.53,5.34a.85.85,0,0,0,.88-1.16c-1.47-3-5.23-4.32-7.55-6.61-1.63-1.61-4.63-3.63-7-3a.8.8,0,0,0-.37,1.42Z"/><path class="cls-1" d="M366.68,93.19c2.31,2.07,5.6,2.93,8.19,4.64s5.33,2.9,7.58,5.14c.65.64,1.86.1,1.46-.85-1.22-2.93-4.34-4.22-6.86-5.87a30.29,30.29,0,0,0-9.76-4.59c-.92-.2-1.18,1-.61,1.53Z"/><path class="cls-1" d="M383.76,93.72c2.51,1.43,5.38,2.27,7.87,3.7,2.81,1.62,5.18,3.72,7.87,5.5.76.51,1.78-.43,1.16-1.18-2.1-2.56-5.34-3.85-8-5.64s-4.85-4.26-8.48-3.85c-.66.08-1,1.1-.38,1.47Z"/><path class="cls-1" d="M399.24,93.08c3.15,2,7.18,3,10.62,4.47s5,4.84,8.42,6.25c1.3.53,2.46-1.42,1.22-2.19-3.13-2-5.44-4.63-8.72-6.38s-7.27-4.3-11.1-3.85a1,1,0,0,0-.44,1.7Z"/><path class="cls-1" d="M416.19,93.66c5.44,2,8.58,7.8,13.53,10.51,1.25.68,2.36-1.37,1.21-2.16a96.58,96.58,0,0,1-8-6.32c-1.86-1.58-4-3.73-6.58-3.63a.84.84,0,0,0-.2,1.6Z"/><path class="cls-1" d="M429.21,92.79c1.8,2.32,4.54,3.64,6.84,5.4,2.51,1.92,5.06,4.37,8,5.58.9.37,1.88-.81,1.18-1.58-2.16-2.35-5.22-4-7.71-6a28.44,28.44,0,0,0-7.44-4.59.77.77,0,0,0-.89,1.18Z"/><path class="cls-1" d="M440.67,92.65a183.73,183.73,0,0,0,16.06,10.65,1.07,1.07,0,0,0,1.28-1.72c-2.82-2.44-6.24-4.12-9.43-6-2.49-1.49-4.49-3.58-7.44-4.08a.65.65,0,0,0-.47,1.17Z"/><path class="cls-1" d="M452.35,92.54c1.67,2.59,4.7,4.18,7.35,5.62,3.06,1.67,5.93,4.47,9.26,5.5a1.11,1.11,0,0,0,1.07-1.92c-2.51-1.88-5.19-3.81-7.87-5.46-2.85-1.76-5.9-4.09-9.21-4.81-.62-.13-.88.63-.6,1.06Z"/><path class="cls-1" d="M465.17,92.36a32,32,0,0,0,8.66,4.3c3.78,1.42,6,5.47,10,6.95a1.06,1.06,0,0,0,.78-2c-4-1.94-6.78-5.35-10.5-7.63-1.58-1-3.49-1.54-5.14-2.43-1.42-.77-2.17-1.13-3.61-.54a.76.76,0,0,0-.16,1.31Z"/><path class="cls-1" d="M479.56,91.87c3.26,2.27,6.86,3.93,10.1,6.27,1.88,1.36,4.13,4.15,6.59,4.19.89,0,1.72-1.26.73-1.83-5.66-3.27-10.5-7.54-16.61-10.09a.85.85,0,0,0-.82,1.46Z"/><path class="cls-1" d="M494.76,91.5c.09.85,1,1.22,1.59,1.64a24.58,24.58,0,0,1,3.12,2.75c2.08,2,5.25,5.28,8.23,5.38a.92.92,0,0,0,.82-1.46c-.78-1.23-2.14-1.93-3.26-2.84s-2.49-1.95-3.65-3c-1.56-1.43-3.29-3.42-5.5-3.72a1.22,1.22,0,0,0-1.27.75.94.94,0,0,0-.08.51Z"/><path class="cls-1" d="M507,92.5c2.72,2.39,6,4.11,8.73,6.49,1.89,1.63,4.1,4,6.8,3.74a.87.87,0,0,0,.4-1.55,51.46,51.46,0,0,1-7.17-5.07c-2.38-2-5.17-4.13-8.26-4.86-.74-.18-1,.84-.5,1.25Z"/><path class="cls-1" d="M520.64,92.59c.88.7,2.13.88,3.11,1.46a37.15,37.15,0,0,1,3.52,2.46c2.32,1.75,4.57,5.07,7.38,5.86a.93.93,0,0,0,1.07-1.43c-1.1-1.5-2.82-2.56-4.19-3.83a43.5,43.5,0,0,0-4-3.21c-1.54-1.13-4.95-3.95-6.92-2.58a.81.81,0,0,0,0,1.27Z"/><path class="cls-1" d="M532.76,92.3c2.29,1.83,4.81,3.41,7.14,5.2a54.65,54.65,0,0,0,7.47,5.32c1,.55,1.84-1.07,1-1.75-2.32-1.85-4.79-3.51-7.14-5.34s-4.78-3.87-7.57-5a.92.92,0,0,0-.88,1.58Z"/><path class="cls-1" d="M543.45,91.9a61.56,61.56,0,0,1,9.13,5.38c2.66,1.83,5.5,4.15,8.67,5,1,.27,2-1.07,1-1.75-3-2-6.15-3.71-9.13-5.78a29.1,29.1,0,0,0-8.93-4.61,1,1,0,0,0-.71,1.78Z"/><path class="cls-1" d="M558.6,91.91c2.63,1.2,4.81,3.24,7.31,4.68,2.21,1.28,4.37,2.69,6.65,3.85.84.43,1.45-.69,1-1.34-1.47-2.17-4.94-3.39-7.17-4.66-2.53-1.44-4.51-3.28-7.51-3.62a.57.57,0,0,0-.28,1.1Z"/><path class="cls-1" d="M503.62,46.44c2.63,1.2,4.81,3.24,7.31,4.68,2.21,1.28,4.37,2.69,6.65,3.85.83.43,1.45-.69,1-1.34-1.47-2.17-4.94-3.39-7.17-4.66-2.53-1.44-4.51-3.28-7.51-3.62a.57.57,0,0,0-.28,1.1Z"/><path class="cls-1" d="M510,42.78c2.55.78,5.26,1.09,7.59,2.53,2,1.24,3.52,3.47,6,3.66a1,1,0,0,0,.49-1.93c-4.43-1.68-8.7-7.29-14.13-5.5a.67.67,0,0,0,0,1.24Z"/><path class="cls-1" d="M518.18,37.79c2.52.43,4.56,1.8,7,2.56,1.09.35,2.18.68,3.24,1.09a28.53,28.53,0,0,0,2.73,1.41.75.75,0,0,0,1-.78c-.29-2.26-3.79-3-5.59-3.54-2.71-.78-5.47-2.7-8.35-2.11a.7.7,0,0,0,0,1.38Z"/><path class="cls-1" d="M525.86,32.45c2.48.47,4.22,2.39,6.6,3.1,1.44.43,2.91.67,4.33,1.18a32.78,32.78,0,0,0,3.5,1.42c.82.2,1.12-.83.78-1.39-1.72-2.8-5.43-3-8.32-3.8-2.43-.64-4.45-2.76-7.1-2-.83.23-.49,1.38.21,1.52Z"/><path class="cls-1" d="M533.92,27.23c2.45.16,4.52,1.37,6.75,2.3,2,.82,3.21,2.92,5.26,3.3a.8.8,0,0,0,.73-1.29,14.84,14.84,0,0,0-5.25-3.86c-2.4-1-4.82-2.41-7.49-2.09a.83.83,0,0,0,0,1.64Z"/><path class="cls-1" d="M540.42,20.46c1.34,1.9,3.39,2.62,5.41,3.62,2.48,1.22,4.5,4,7.38,4.2.86.06,1.52-1.15.67-1.67-2.16-1.32-4.32-2.68-6.51-4-2-1.15-4.22-1.68-6-3.16-.61-.5-1.36.36-.94,1Z"/><path class="cls-1" d="M545.5,15.86c2,1.23,4.07,2.6,6.16,3.76,2.33,1.29,4.87,3.78,7.57,4.1a.89.89,0,0,0,.63-1.58c-2.16-2.05-5.22-3.36-7.72-5-1.93-1.25-3.79-3.09-6.23-2.87a.88.88,0,0,0-.4,1.56Z"/><path class="cls-1" d="M550.23,11.56a35.07,35.07,0,0,1,4.65,2.65c1.73,1,3.09,2.44,4.78,3.46.91.55,2.22-.52,1.4-1.43a26.29,26.29,0,0,0-5.79-4.34c-1.59-1-3.07-2.38-5-1.75a.77.77,0,0,0,0,1.42Z"/><path class="cls-1" d="M556.05,7c1.64,1.05,3.28,2,4.85,3.2.81.6,1.64,1.12,2.41,1.77a5.66,5.66,0,0,0,2.23,1.52c.63.17,1.46-.38,1.09-1.11-1-1.89-3.15-3.17-4.85-4.36s-3.34-2.47-5.37-2.42a.79.79,0,0,0-.36,1.4Z"/><path class="cls-1" d="M561.69,2.31a18.64,18.64,0,0,0,3.36,4.31c1.36,1.32,3.15,3.43,5,4a1,1,0,0,0,1.24-1.26c-.68-1.51-2.43-2.51-3.68-3.52a36.15,36.15,0,0,1-4.72-4.23c-.49-.56-1.59,0-1.19.69Z"/><path class="cls-1" d="M198.51,51.19A6.92,6.92,0,0,0,193.4,45a3,3,0,0,0-2.86-.86,5.4,5.4,0,0,0-3.6,3.09c0,.06-.06.13-.09.2a6.4,6.4,0,0,0-.68,1.11,7.32,7.32,0,0,0-.36,5.27,6.23,6.23,0,0,0,.72,2,6,6,0,0,0,6.54,3.13,6.12,6.12,0,0,0,3-.87,5.36,5.36,0,0,0,2.3-5A7,7,0,0,0,198.51,51.19Z"/><path class="cls-1" d="M431.61,51.19A6.92,6.92,0,0,0,426.5,45a3,3,0,0,0-2.86-.86,5.4,5.4,0,0,0-3.6,3.09c0,.06-.06.13-.09.2a6.4,6.4,0,0,0-.68,1.11,7.32,7.32,0,0,0-.36,5.27,6.22,6.22,0,0,0,.72,2,6,6,0,0,0,6.54,3.13,6.12,6.12,0,0,0,3-.87,5.36,5.36,0,0,0,2.3-5A7,7,0,0,0,431.61,51.19Z"/></g></g></svg>