<svg xmlns="http://www.w3.org/2000/svg" xmlns:xlink="http://www.w3.org/1999/xlink" viewBox="0 0 512 512"><defs><style>.cls-1{fill:url(#linear-gradient);}.cls-2{fill:#535453;}.cls-3{fill:url(#linear-gradient-2);}.cls-4{fill:url(#linear-gradient-3);}.cls-5{fill:#fff;}.cls-6{fill:url(#linear-gradient-4);}.cls-7{fill:url(#linear-gradient-5);}</style><linearGradient id="linear-gradient" x1="647.89" y1="479.32" x2="123.46" y2="180.47" gradientUnits="userSpaceOnUse"><stop offset="0" stop-color="#ff0"/><stop offset="0.06" stop-color="#fff905"/><stop offset="0.59" stop-color="#fbb03b"/><stop offset="0.59" stop-color="#f3ab39"/><stop offset="0.66" stop-color="#b47e2a"/><stop offset="0.73" stop-color="#7d581d"/><stop offset="0.79" stop-color="#503813"/><stop offset="0.85" stop-color="#2d200b"/><stop offset="0.91" stop-color="#140e05"/><stop offset="0.96" stop-color="#050401"/><stop offset="1"/></linearGradient><linearGradient id="linear-gradient-2" x1="309.64" y1="399.48" x2="253.63" y2="210.71" gradientTransform="translate(-16.1 -7.2) rotate(-0.15)" gradientUnits="userSpaceOnUse"><stop offset="0" stop-color="#ff0"/><stop offset="0.06" stop-color="#fff905"/><stop offset="0.71" stop-color="#fbb03b"/><stop offset="0.73" stop-color="#eea738"/><stop offset="0.78" stop-color="#ca8e30"/><stop offset="0.85" stop-color="#916622"/><stop offset="0.93" stop-color="#432f10"/><stop offset="1"/></linearGradient><linearGradient id="linear-gradient-3" x1="451.74" y1="172.52" x2="370.29" y2="341.98" xlink:href="#linear-gradient-2"/><linearGradient id="linear-gradient-4" x1="2878.93" y1="616.87" x2="2753.67" y2="877.48" gradientTransform="translate(2950.13 1016.76) rotate(179.85)" xlink:href="#linear-gradient-2"/><linearGradient id="linear-gradient-5" x1="2382.47" y1="1401.41" x2="2311.63" y2="1548.8" gradientTransform="translate(2721.71 -844.93) rotate(123.06)" xlink:href="#linear-gradient-2"/></defs><title>Asset 1</title><g id="Layer_2" data-name="Layer 2"><g id="Layer_1-2" data-name="Layer 1"><circle class="cls-1" cx="256" cy="256" r="256"/><path class="cls-2" d="M244.68,346.43s27.7-6.92,32-42.48l-.23-94.34-24.32,5.28-7.78,8.48Z"/><path class="cls-3" d="M244.84,346.78s27.7-6.92,32-42.48L276.63,210l-24.32,5.28-7.78,8.48Z"/><path class="cls-4" d="M400.07,193.87s-27.7,6.92-32,42.48l.23,94.34,24.32-5.28,7.78-8.48Z"/><path class="cls-5" d="M264.17,201.43a10.43,10.43,0,0,1,15.66,0C304.82,228.9,381.67,314.29,385.1,318c4.11,4.43,14.18,0,14.18,0L381.6,337.33a10.42,10.42,0,0,1-15.55,0l-105.62-114c-6.32-7.5-16.38,0-16.38,0Z"/><path class="cls-6" d="M157.7,143.76C127.75,167,127,198.2,127,198.2l.41,164.86s26.54-9.24,30.64-56.88l-.31-126.4Z"/><path class="cls-7" d="M235,351.9s12.33-29.86-9.53-50.27l-63.58-44.9-8.07,21.79,2,10.21Z"/><path class="cls-5" d="M249.33,173.22a10.08,10.08,0,0,1,0,13.82c-21.23,22.05-87.3,89.86-90.16,92.89-3.43,3.62,0,12.51,0,12.51l-15-15.59a10.08,10.08,0,0,1,0-13.72l88.2-93.2c5.8-5.58,0-14.45,0-14.45Z"/></g></g></svg>