<svg xmlns="http://www.w3.org/2000/svg" viewBox="0 0 1109.18 232.64"><defs><style>.cls-1{fill:#594a42;}</style></defs><title>Menu</title><g id="Layer_2" data-name="Layer 2"><g id="Layer_4" data-name="Layer 4"><path class="cls-1" d="M1014.21,14.73c-88.31-1.62-181.34,0-270.41-.13-88.47-.12-177.17.44-265.54.07-126.13-.52-249.36-1.4-375.51-.76-19.45.1-15.14,4.91,4,4.82,132.67-.62,262.91.69,395.49.9,87.38.14,174.74-.14,262.15.07,81.21.19,170.91,1.49,249.92-1.8,10.29-.43,11.86-3-.12-3.17Z"/><path class="cls-1" d="M17.31,231.21c1.08-25.65-.2-51.22-.42-76.87q-.18-21.68.26-43.36c.07-3.64-1.57-15.84,2.53-16.23A63.16,63.16,0,0,0,31.2,92.51c33.94-9.78,60-40.92,59.57-76.77,0-2.75-4.27-2.14-4.23.57.58,38.58-33,72.46-71,75a1.87,1.87,0,0,0-1.63,1.65c-1.44,45.94-1.87,92.37.13,138.3.08,1.89,3.22,1.86,3.3,0Z"/><path class="cls-1" d="M71.41,2.68C59.54-1.66,55.92,40.24,58.35,46.81a.86.86,0,0,0,.48.51,1.35,1.35,0,0,0,1.87-.15c5.55-6.89,8.66-17.48,11.46-25.71C73.68,17,78.18,5.16,71.41,2.68ZM66.48,29c-1.94,4.86-4.23,9.52-6.58,14.17-.3-5.63.85-11.6,1.79-17a86.2,86.2,0,0,1,3.26-13c.49-1.43,5.23-11.54,6.71-6C73.4,13.8,68.86,23.05,66.48,29Z"/><path class="cls-1" d="M51,42.71a.94.94,0,0,0,1.32-.19c.91-1.29.39-3.48.35-5a85.06,85.06,0,0,0-.78-9.9c-.52-3.56-1.87-9.71-6.63-9.13-10,1.23,2.26,20.07,5.3,23.62A2.64,2.64,0,0,0,51,42.71ZM46.3,21.1c3.14,1,3.16,9.51,3.36,12,.08,1,0,2.62,0,4.24C48.73,36,47.76,34.55,47,33.11S40.46,19.22,46.3,21.1Z"/><path class="cls-1" d="M44.43,60.72C37.78,58.26-4,61.92.32,73.8c2.49,6.8,14.3,2.18,18.79.73,8.21-2.67,18.88-6,25.72-11.47a1.31,1.31,0,0,0,.12-1.86A.87.87,0,0,0,44.43,60.72ZM4.49,73.93c-4.73-1.26,4-5.68,5.11-6.15a68.05,68.05,0,0,1,12.63-3.43c5.81-1.16,12.42-2.44,18.56-2.09-4.22,2.12-8.44,4.19-12.8,6C21.54,71,11.67,75.84,4.49,73.93Z"/><path class="cls-1" d="M39.92,53c-4-3.54-20.48-15-23.66-5.77-1.55,4.52,5.26,6.24,8.24,6.81a65.06,65.06,0,0,0,10,.92c1.64.06,4.25.68,5.69-.33a.94.94,0,0,0,.16-1.32,2.5,2.5,0,0,0-.4-.3Zm-8.31-.92c-3.23-.21-11.08-.11-12.87-3.47-1.67-3.13,3.77-2.66,5.1-2.31A30.74,30.74,0,0,1,30,48.91c1.74.9,3.4,2.06,5.09,3.14C33.75,52.06,32.47,52.13,31.61,52.08Z"/><path class="cls-1" d="M42.29,46.72l.14.14c.66.62,1.86-.32,1.42-1.11-4-7.22-8.06-14.67-13.39-21-3.07-3.67-7.89-9.43-13.27-8.74-7.26.94-3.09,9.63-.89,12.79C22.46,37.64,32.43,42.92,42.29,46.72ZM22.36,20.37c8.08,5.88,11.1,15.68,17,23.15-6.51-3.24-13.61-7.67-18.07-12.71a34.68,34.68,0,0,1-5.43-7.89C13.23,17.36,20.18,18.78,22.36,20.37Z"/><path class="cls-1" d="M48.58,49.17a1.11,1.11,0,0,0-.51.66,2.84,2.84,0,0,0-.57.39,5,5,0,0,0-1.36,4c.14,3.23,2.37,6.38,5.76,6.65,4.35.34,7.45-3.37,6-7.47C56.6,49.73,52.13,47,48.58,49.17Zm3.15,8.67c-1.64-.22-2.48-2.14-2.72-3.57-.2-1.2.22-2.5,1.13-2.76l.06,0a1.29,1.29,0,0,1,.41,0,.76.76,0,0,0,.55-.15,4.43,4.43,0,0,1,3.92,2.87C56.15,56.55,54,58.15,51.73,57.84Z"/><path class="cls-1" d="M1095.16,228.84c2-45.93,1.57-92.35.13-138.3a1.87,1.87,0,0,0-1.65-1.63c-38.1-2.53-71.59-36.43-71-75,0-2.73-4.2-3.27-4.23-.52-.42,35.86,25.67,67,59.6,76.76a76.07,76.07,0,0,0,9.68,2c1.79.27,3.87-.53,4,1.82.13,3.91.23,7.82.33,11.72.35,14.45.43,28.91.34,43.37-.17,26.62-1.56,53.17-.44,79.79.08,1.89,3.22,1.86,3.3,0Z"/><path class="cls-1" d="M1050.83,44.42c2.46-6.65-1.2-48.45-13.08-44.11-6.8,2.49-2.18,14.3-.73,18.79,2.67,8.21,6,18.88,11.47,25.72a1.31,1.31,0,0,0,1.86.12A.87.87,0,0,0,1050.83,44.42ZM1043.26,28c-2.72-6.45-7.55-16.32-5.64-23.5,1.26-4.73,5.68,4,6.15,5.11a68.06,68.06,0,0,1,3.43,12.63c1.16,5.81,2.44,12.42,2.09,18.56C1047.16,36.58,1045.1,32.36,1043.26,28Z"/><path class="cls-1" d="M1058.24,40.32a2.52,2.52,0,0,0,.3-.4h0c3.53-4,15-20.52,5.71-23.68-4.53-1.54-6.22,5.27-6.79,8.25a65.06,65.06,0,0,0-.89,10c-.05,1.64-.67,4.25.34,5.69A.94.94,0,0,0,1058.24,40.32Zm1.21-8.72c.2-3.22.08-11.08,3.44-12.88,3.13-1.68,2.67,3.76,2.33,5.09a30.75,30.75,0,0,1-2.61,6.17c-.9,1.74-2.05,3.4-3.13,5.1C1059.47,33.75,1059.4,32.47,1059.45,31.6Z"/><path class="cls-1" d="M1064.73,58.35a.86.86,0,0,0-.51.48,1.35,1.35,0,0,0,.15,1.87c6.89,5.55,17.49,8.66,25.71,11.46,4.48,1.52,16.3,6,18.78-.76C1113.21,59.54,1071.3,55.92,1064.73,58.35Zm39.58,13.31c-6.56,1.74-15.82-2.8-21.75-5.17-4.86-1.94-9.52-4.23-14.17-6.58,5.63-.3,11.6.85,17,1.79a86.19,86.19,0,0,1,13,3.26C1099.77,65.44,1109.88,70.18,1104.31,71.66Z"/><path class="cls-1" d="M1069.4,50.5a2.62,2.62,0,0,0-.56.45.94.94,0,0,0,.19,1.32c1.3.91,3.47.39,5,.34a85,85,0,0,0,9.9-.8c3.55-.53,9.71-1.89,9.12-6.65C1091.74,35.1,1072.93,47.46,1069.4,50.5Zm21-4.26c-1,3.14-9.5,3.19-12,3.39-1,.08-2.62,0-4.24,0,1.43-.92,2.83-1.89,4.27-2.68S1092.3,40.4,1090.43,46.25Z"/><path class="cls-1" d="M1066.76,44.48l.13-.14c9.57-3.69,18.82-8.69,25.21-16.89,3-3.8,7.27-11.37.19-13.77-4.86-1.65-10.29,4.94-13,8-5.65,6.37-9.74,14.14-13.86,21.51C1065,44,1065.92,45.26,1066.76,44.48Zm19.33-25.9c2.09-1.82,5.39-4,7.22-.65,1.56,2.86-3.2,7.78-4.86,9.81-4.41,5.41-12,10.14-18.85,13.5,3.2-4.26,5.32-9.35,8.47-13.63A55,55,0,0,1,1086.09,18.58Z"/><path class="cls-1" d="M1061.08,47.45a1.14,1.14,0,0,0-.52-.67c-3.68-2.23-7.84.72-9.3,4.23-1.77,4.26,1.93,7.51,6,7.45,3.39-.05,5.62-3.6,5.75-6.66a4.94,4.94,0,0,0-1.39-4A2.76,2.76,0,0,0,1061.08,47.45Zm-3.65,8c-2.16.43-4.18-1.2-3.45-3.39A4.36,4.36,0,0,1,1058,49a.76.76,0,0,0,.52.14,1.66,1.66,0,0,1,.34,0c.11,0,.21,0,.32.09l.13,0C1061.14,50.06,1059.83,55,1057.43,55.47Z"/></g></g></svg>