<svg xmlns="http://www.w3.org/2000/svg" viewBox="0 0 785.25 139.64"><defs><style>.cls-1{fill:#594a42;}</style></defs><title>Menu2</title><g id="Layer_2" data-name="Layer 2"><g id="Layer_1-2" data-name="Layer 1"><text></text><path class="cls-1" d="M676.6,75c-54.78-1.29-112.49,0-167.75-.11-54.88-.1-109.91.35-164.73.06-78.25-.42-154.69-1.11-233-.61-12.06.08-9.39,3.92,2.5,3.84,82.3-.5,163.1.55,245.34.72,54.2.11,108.4-.11,162.62.06,50.38.15,106,1.19,155-1.43,6.38-.34,7.35-2.35-.07-2.53Z"/><path class="cls-1" d="M700.89,74.21c-.49-3.53-5.55-3.48-8.12-3.46a32.2,32.2,0,0,0-10.53,1.85c3.25-4.81,4.58-11.45,1.77-15.59-1.93-2.85-5.74-2.06-7.76.38-1.27,1.53-.36,4.15.14,5.76,1.58,5.07-.9,8.87-4.84,11.87a1,1,0,0,0-.1.11c-32.4.68-64.82.74-97.22.71q-22.86,0-45.72-.13c-7,0-14.09-.47-21,.29a.87.87,0,0,0,0,1.73c7.2,1,14.75.54,22,.57q23.16.11,46.32.11c32,0,64.08,0,96.12-.53a.89.89,0,0,0,.29.44c3,2.43,3.86,5.59,3.76,9.34-.07,2.62-1.33,4.77.59,6.88,2.28,2.51,6.17,1,8.09-1.07,2.88-3.1.07-9.29-1.81-12.1a13.62,13.62,0,0,0-1.16-1.49C689,82.12,702.2,83.74,700.89,74.21Zm-22-12.11c-1.33-4.11,2.78-5.29,3.65-1.07a13.52,13.52,0,0,1-.75,7c-1.16,3.44-3.49,5.26-6.11,7.06h-.21A12,12,0,0,0,678.92,62.1Zm.64,31.18c-2.58,0-1.24-3.88-1.14-5.32a14.41,14.41,0,0,0-.44-5,11.78,11.78,0,0,0-1.75-3.68,13,13,0,0,1,4,3C682.44,84.84,685.65,93.32,679.56,93.28Zm16.7-15c-1.61.92-3.9.63-5.66.54a36.64,36.64,0,0,1-10.85-2.72c5-1.26,9.63-2.92,15-2.68l1,.1Q699.76,73.57,696.26,78.24Z"/><path class="cls-1" d="M282.42,76c-14.11-1.17-28.66,0-42.82.11q-23.16.21-46.33.15c-27.55-.05-55.1-.5-82.64-1.1a1,1,0,0,0-.14-.15c-3.25-2.36-6.8-6.1-5.44-10.41.68-2.13,1.45-3.2.7-5.41S100,53.4,98,56.26c-3.08,4.33-2.11,11.33,1.23,16.33a42.33,42.33,0,0,0-10.11-1.81c-3.46-.25-7.53-.16-9.23,3.11s2.33,6.78,5.26,7.33A31,31,0,0,0,99.7,80c-3.51,3.83-5.36,9.17-3.07,13.17,1.61,2.81,5.88,3.24,8.41,1.56,2.21-1.48,1.19-3.85.94-5.93-.5-4.11.41-7.87,3.86-10.52a.86.86,0,0,0,.29-.4q41.41.77,82.82.9,20.56.07,41.11-.08c15.94-.1,32.54.84,48.37-1A.87.87,0,0,0,282.42,76ZM99,61c.54-4.19,5.09-2.12,4.19.87-1,3.22-1.54,4.9-.39,8.28a10.68,10.68,0,0,0,3.61,4.9h-.17c-2.74-1.85-5-3.6-6.47-7.09A13.17,13.17,0,0,1,99,61ZM86.73,78.77Q82,78.62,83.5,73.84a11.62,11.62,0,0,1,2.74-.46c5.5-.52,10.53,1.37,15.71,2.67a48.9,48.9,0,0,1-9.85,2.59A26.41,26.41,0,0,1,86.73,78.77Zm17,4.17a12.18,12.18,0,0,0-.48,3.86c0,1.94,1.6,6-1.19,6.49-3.18.56-3.8-3-3.52-5.15a12.15,12.15,0,0,1,2.9-5.88,11.37,11.37,0,0,1,4.26-3.17A11.45,11.45,0,0,0,103.77,82.94Z"/><path class="cls-1" d="M32.29,125.1c-6.64-.25-12.31-4.23-11.92-11.49.35-6.44,7.63-8.83,12.83-8.76,9,.13,15.22,6.37,16.21,15,1.25,10.79-10,15.74-18.86,16.63-9.28.93-20.87-2.4-25.47-11.15-2.82-5.36-1.49-11.76.78-17C10.3,98,21.71,96.51,31.18,94.21,41,91.82,54.76,81.72,49.92,69.91c-4.12-10.06-15.5-14.25-25.8-12-9.21,2-14.3,14.29-6.24,21S36.71,78.79,31.11,69c-2.59-4.53-8.25-5.8-10-.08-.61,2,2.29,3.21,3,1.21,1.37-3.66,3.52-.27,4.36,1.22,1.74,3,1.06,10.75-7.08,6.06-5.62-3.24-5-10.7-.63-14.34C26.5,58.29,36.57,60.91,42,64.64c10.6,7.29,3.15,18.9-5.18,23.6-7,3.95-15.46,3.7-22.72,7.2C4,100.33-2.12,112.39.68,123.37c2,7.82,9.13,12.69,16.47,14.87,12.87,3.83,36.39-.08,35.44-17.76C52,109,43.61,101,32.07,100.67c-12-.33-19.79,12-12.82,22.11,2.87,4.16,8.34,5.59,13.06,5.18,1.62-.14,1.63-2.8,0-2.86Z"/><path class="cls-1" d="M45.86,64C40,58.71,33.12,49.4,38.52,41.47c3.76-5.51,12.43-5.46,18-3.66,8,2.59,10.55,11.39,4.1,17.29-3.36,3.08-7.89,2.47-10.75-.87-1.4-1.64-1.65-4.07-1.5-6.11Q50.47,42.8,54.06,46q.8,1.32-.35,2c-1.87-.89-3,2.07-1.18,3,3.65,1.8,5.75-2.37,4.81-5.54-1.35-4.56-7.65-5.7-10.69-1.85C42.42,49,45,56.3,50.3,59.77c6,3.95,13.23-.63,16.33-6C74.83,39.57,56,31.36,44.71,33.88c-17.11,3.83-12.6,25.6-.06,32.31,1.33.71,2.18-1.29,1.21-2.16Z"/><path class="cls-1" d="M30,116.93c1.11-.78,3-.4,4.09.3,2,1.28,2.06,4.47.87,6.24-2.31,3.45-6.9-.27-9.69,1a1.11,1.11,0,0,0-.6,1.45c1.33,2.38,5.69,2.43,8.09,2.29A7.79,7.79,0,0,0,40,122.33a8.46,8.46,0,0,0-4.45-9.12c-2.28-1.05-7.51-.9-7.57,2.54A1.32,1.32,0,0,0,30,116.93Z"/><path class="cls-1" d="M753.24,128c12.66,1.1,20.64-12.46,12.27-22.49-7.59-9.08-22.58-4.37-28.94,3.39-5,6.15-4.74,16.43,0,22.5,4.86,6.23,13.82,8.22,21.29,8.28,18.72.14,33.22-13.88,25.09-32.69C776.2,91.38,758,94.34,746,86.58,737.27,81,735.67,70,744.65,63.86c5.89-4,16.38-4.93,21.58.61,4.12,4.39,1.23,11-3.4,13.68-8.68,5-6.55-5.49-5.44-7.45.91-1.6,2.81-3.73,4-.54.75,2,3.63.72,3-1.26-2.7-8.72-11.84-.75-11.65,5.41.37,11.69,16.9,8.42,18.55-1.3,3.95-23.28-39.94-19.19-36.23,4.58,2.3,14.72,20.79,15.79,31.51,19.56,13.49,4.75,21.53,23.26,9.4,33.58-14.26,12.13-52.14,3.08-36.73-19.86,3.69-5.5,12.5-7,18.44-5.41,13,3.44,6.82,19.22-4.49,19.64-1.65.06-1.59,2.72,0,2.86Z"/><path class="cls-1" d="M740.89,66.19c12.86-6.88,16.58-27.42.33-32.2-12.42-3.65-30.12,6.28-21.9,20.51C722.48,60,729,62.67,734.81,60c5-2.29,8.54-10.73,4.77-15.49-3-3.82-8.81-4.53-11.18.24-1.59,3.2.74,8.17,4.62,6.26,1.84-.91.64-3.84-1.23-3l-.57-1q.07-2.6,3.51-2.06c3.35.89,2.55,5.24,1.88,7.35-1.76,5.5-7.83,5.65-11.78,2.71-7.55-5.63-2.9-14.5,4.17-17.28,5.92-2.33,13.82-1.28,18,3.7,6.13,7.27-2,17.72-7.39,22.54-1,.89-.06,2.84,1.25,2.14Z"/><path class="cls-1" d="M757.58,115.73c-.06-3.4-4.9-3.38-7.17-2.65-3.58,1.16-5.15,5.24-5,8.7.19,3.3,3.67,6.16,6.79,6.41,2.25.18,7.14.31,8.44-2a1.13,1.13,0,0,0-.48-1.69c-1.35-.63-3,.12-4.37.32-1.85.27-4.06.14-5.33-1.39-2.52-3,1.41-9,5-6.48a1.32,1.32,0,0,0,2.06-1.22Z"/></g></g></svg>