<svg xmlns="http://www.w3.org/2000/svg" xmlns:xlink="http://www.w3.org/1999/xlink" viewBox="0 0 354.98 145.2"><defs><style>.cls-1{fill:url(#linear-gradient);}.cls-2{fill:url(#linear-gradient-2);}.cls-3{fill:url(#linear-gradient-3);}.cls-4{fill:url(#linear-gradient-4);}.cls-5{fill:url(#linear-gradient-5);}.cls-6{fill:#fff;}.cls-7{font-size:36px;fill:#f70000;font-family:GROBOLD, GROBOLD;}.cls-8{fill:#f42f2f;}</style><linearGradient id="linear-gradient" x1="51.73" y1="86.44" x2="294.42" y2="86.44" gradientUnits="userSpaceOnUse"><stop offset="0" stop-color="#fff"/><stop offset="0" stop-color="#3f00e9"/><stop offset="1"/></linearGradient><linearGradient id="linear-gradient-2" x1="51.34" y1="67.97" x2="87.76" y2="67.97" xlink:href="#linear-gradient"/><linearGradient id="linear-gradient-3" x1="261.78" y1="70.25" x2="298.2" y2="70.25" xlink:href="#linear-gradient"/><linearGradient id="linear-gradient-4" x1="269.15" y1="79.6" x2="346.69" y2="79.6" xlink:href="#linear-gradient"/><linearGradient id="linear-gradient-5" x1="0" y1="78.73" x2="77.22" y2="78.73" xlink:href="#linear-gradient"/></defs><title>Score</title><g id="Layer_2" data-name="Layer 2"><g id="OBJECTS"><path class="cls-1" d="M274.67,74.2l-16.44-4.38c-12-3.19-24.07-6.4-36.89-7.83-8.31-.93-16.79-1.1-25.23-1.25-39.7-.73-81.42-1-116.52,10.52-2.51.82-6.47,1.21-8.91,2.1q-9.76,3.58-18.95,7.72c0,2.56,7.36,8.41,8,9.49,2,3.55,8.39,12.19,8.85,13.16,1,2.11,2.92,6.1,5.22,7.78-.23-.26,25.91-8.85,39.07-11.72a202.32,202.32,0,0,1,22.92-4.08,217.21,217.21,0,0,1,25.08-.57c18.78.29,37.74.6,55.94,3.48,15.7,2.48,36.3,9.5,50.93,13.81,10.32-8.69,16.36-20.65,26.68-29.33C287,79.78,283.06,76.43,274.67,74.2Z" transform="translate(0 -15.48)"/><path class="cls-2" d="M51.34,79.09c6.88-8.87,17.51-16.62,30.56-22.25.9,1.21.63,2.59,1.33,3.85.58,1,1.88,1.89,2.48,2.93a15.59,15.59,0,0,1,.63,1.51A5.5,5.5,0,0,0,87.76,67c-7.71,1.73-15.29,3.85-22.59,6.17C59.73,74.89,55.48,76.31,51.34,79.09Z" transform="translate(0 -15.48)"/><path class="cls-3" d="M298.2,81.37c-6.88-8.87-17.51-16.62-30.56-22.25-.9,1.21-.63,2.59-1.33,3.85-.58,1-1.88,1.89-2.48,2.93a15.57,15.57,0,0,0-.63,1.51,5.5,5.5,0,0,1-1.43,1.86c7.71,1.73,15.29,3.85,22.59,6.17C289.81,77.17,294.06,78.59,298.2,81.37Z" transform="translate(0 -15.48)"/><path class="cls-4" d="M269.15,58.1c7.18-.53,14.28,1.24,20.66,3.35s12.55,4.61,19.55,5.75a104.72,104.72,0,0,0,11,1,94.21,94.21,0,0,0,14.84,0,32.17,32.17,0,0,0,8.64-2c1.36-.56,3.19.21,2.76,1.14C341.73,77.84,330.11,83,329.85,83.84a1,1,0,0,0-.07.63c.09.29.41.52.71.75,4.75,3.67,12,9.06,15,13.38.28.4.55.83.85,1.26.52.74-.62,1.5-2,1.31-8.17-1.13-16.76-.89-25.18-.91-9.71,0-24.83-1.3-33.06-4.49,1-2.55,13.79-11.92,15.8-14.49C294.85,72,283.08,63.74,269.15,58.1Z" transform="translate(0 -15.48)"/><path class="cls-5" d="M77.22,57.3c-7.18-.53-14.28,1.24-20.66,3.35S44,65.26,37,66.39a104.72,104.72,0,0,1-11,1,94.21,94.21,0,0,1-14.84,0,33.63,33.63,0,0,1-7.68-1.66C1.7,65.1-.49,66.07.1,67.23,5.17,77.28,16.26,82.25,16.52,83a1,1,0,0,1,.07.63c-.09.29-.41.52-.71.75-4.75,3.67-12,9.06-15,13.38l-.45.67c-.66,1,.82,2,2.59,1.77,7.85-1,16.07-.75,24.14-.78,9.71,0,24.83-1.3,33.06-4.49-1-2.55-13.79-11.92-15.8-14.49C51.52,71.15,63.29,62.94,77.22,57.3Z" transform="translate(0 -15.48)"/><path d="M117.74,110.49c.44,1.31,2.58,2.48,3.94,3.49,1.71,1.27,3.46,2.5,5.24,3.73v-1.34q-4.42,3-9.16,5.73c-1.47.86.75,2.22,2.21,1.37q4.75-2.77,9.11-5.76a.73.73,0,0,0,0-1.34c-1.69-1.16-3.36-2.33-5-3.51-1.42-1-2.86-2.54-4.87-3.07-.8-.21-1.64.13-1.46.69Z" transform="translate(0 -15.48)"/><path d="M147.11,118.92a306.08,306.08,0,0,0,31,.67c1.84,0,1.85-1.83,0-1.78-10.38.28-20.7,0-31-.6-1.78-.11-1.73,1.58,0,1.71Z" transform="translate(0 -15.48)"/><path d="M132.73,110.49c.38,1.14,1.75,2.18,2.8,3.13s2.46,2.1,3.81,3.1c.1.07,1.15.65,1,.46q.52-.23-.07.08l-.61.37-2.42,1.49-5.12,3.18c-1.41.88.78,2.24,2.2,1.36q3-1.86,6-3.74c1.11-.69,3.56-1.71,3-2.87-.23-.5-.93-.85-1.47-1.22-.88-.6-1.73-1.23-2.55-1.87-1.61-1.26-3-3-5-4.06-.76-.39-1.85,0-1.65.59Z" transform="translate(0 -15.48)"/><path d="M180,119.68c5.5.16,11,.22,16.5.26,2.61,0,5.21,0,7.82,0a53.75,53.75,0,0,0,8.18-.26c1.25-.21,1.34-1.45,0-1.62a57.73,57.73,0,0,0-7.75-.06c-2.75,0-5.5,0-8.25,0-5.5,0-11-.11-16.5-.23-2,0-2,1.86,0,1.92Z" transform="translate(0 -15.48)"/><path d="M209.59,114.89c1.38,1.19,4.28,1.67,6.34,2.33q1.74.56,3.44,1.16l1.66.6c.25.09,1.38.65,1.17.42v-1a7.9,7.9,0,0,1-2.13,1c-.95.4-1.9.8-2.88,1.17s-1.8.68-2.72,1a14.75,14.75,0,0,1-3.12,1c-1.15.11-1.38,1.09-.66,1.54l.21.13a2.52,2.52,0,0,0,2,.16,76.19,76.19,0,0,0,8.2-3c1.3-.58,4.59-1.6,3.87-2.85-.32-.55-1.27-.82-2-1.1q-2-.74-4-1.42c-1.41-.47-2.83-.91-4.27-1.34a11.53,11.53,0,0,0-4.09-.81c-.72,0-1.45.55-.93,1Z" transform="translate(0 -15.48)"/><path d="M102,140.81c6.42,2.28,12.32,2,19.16.8,3.42-.59,6.8-.28,10.12-1.22,2.52-.71,5.68-2,6.25-3.76.12-.37-.47-.68-1-.49-2.21.73-3.7,2-6,2.73-3.08.92-6.28.6-9.48,1.1a50.41,50.41,0,0,1-8.25,1.08,28.2,28.2,0,0,1-9.45-1.61c-1.43-.5-2.71.86-1.29,1.36Z" transform="translate(0 -15.48)"/><path d="M136.37,137.14c8.43,7.87,26.48,7.88,35.35.33H169.5c3.18,3.64,9.52,5.73,16.15,5.76a34.7,34.7,0,0,0,19.35-6l-2-.16c9.49,8.32,31.62,8.56,42.13.93,1.07-.78-.74-1.91-1.82-1.13-9.35,6.78-29.48,6.91-38.08-.62a1.85,1.85,0,0,0-2-.16,31.31,31.31,0,0,1-16.53,5.48c-6.07.19-12-1.61-14.91-5a1.8,1.8,0,0,0-2.23,0c-7.8,6.65-23.49,6.39-31-.27-.88-.77-2.94-.06-2.08.75Z" transform="translate(0 -15.48)"/><path d="M138.37,154.59c8.34,7.92,26.53,7.84,35.36.33h-2.24c3.18,3.64,9.52,5.73,16.15,5.76a34.7,34.7,0,0,0,19.34-6c1.11-.75-.7-1.88-1.82-1.13a31.29,31.29,0,0,1-16.53,5.47c-6.07.19-12-1.61-14.9-5a1.81,1.81,0,0,0-2.24,0c-7.84,6.69-23.41,6.35-31-.27-.88-.77-2.93-.06-2.08.75Z" transform="translate(0 -15.48)"/><path d="M287.86,51a7.4,7.4,0,0,1,1.7-.18,3.3,3.3,0,0,0,1.47-.16c.84,0,1.93,0,2.77,0,.33,0,.66,0,1,.07a5.47,5.47,0,0,1,4.07,2.44A27.13,27.13,0,0,1,306,49.44c1.82-.46,3.86-.55,5.6-1.12A27.19,27.19,0,0,1,317.88,47a.19.19,0,0,1,.13,0s0,.06,0,.09l-.51.38a29.66,29.66,0,0,1-5.22,3,24,24,0,0,1-2.92.89,16.82,16.82,0,0,1-1.89.49c-.32.06-.65.1-1,.17a6.76,6.76,0,0,0-1.24.46q-1.07.49-2.09,1a37.58,37.58,0,0,1,4.2,0c-2.92,1.67-3,.45-7.68,1.55a15.43,15.43,0,0,1-3.15.21c-1.71.11-2.94-.2-4-.1.34-.65.78-.51,1.23-.89.55-.06,2.09-.38,2.61-.37-1.17-1-4-1-5.11-1.14a20.11,20.11,0,0,1-3-.7l-3.55-1c-.19-.06-.42-.18-.31-.29a.49.49,0,0,1,.27-.08A13.33,13.33,0,0,1,287.86,51Z" transform="translate(0 -15.48)"/><path d="M45.69,27.32a6.35,6.35,0,0,1,1.46-.16A2.83,2.83,0,0,0,48.41,27c.72,0,1.66,0,2.38,0,.28,0,.56,0,.84.06a4.7,4.7,0,0,1,3.49,2.09A23.28,23.28,0,0,1,61.27,26c1.56-.4,3.31-.48,4.81-1a23.33,23.33,0,0,1,5.37-1.1.16.16,0,0,1,.11,0s0,.05,0,.08l-.43.32a25.45,25.45,0,0,1-4.48,2.6,20.61,20.61,0,0,1-2.5.76,14.44,14.44,0,0,1-1.62.42c-.28,0-.56.08-.83.15a5.8,5.8,0,0,0-1.06.39q-.92.42-1.79.88a32.24,32.24,0,0,1,3.6,0C59.9,31,59.84,30,55.82,30.91a13.24,13.24,0,0,1-2.7.18c-1.46.09-2.52-.17-3.47-.09.3-.56.67-.44,1.06-.77.48-.05,1.8-.32,2.24-.32-1-.85-3.44-.85-4.39-1a17.26,17.26,0,0,1-2.55-.6l-3-.89c-.17,0-.36-.15-.27-.25a.42.42,0,0,1,.24-.07A11.44,11.44,0,0,1,45.69,27.32Z" transform="translate(0 -15.48)"/><path d="M273.29,28a5,5,0,0,1,1.13,0,2.23,2.23,0,0,0,1,0c.53.11,1.24.16,1.77.27l.61.14a2.65,2.65,0,0,1,2,1.95,22.77,22.77,0,0,1,5.5-1.69c1.28-.12,2.6,0,3.86-.18a19.51,19.51,0,0,1,4.32-.22s.07,0,.08,0,0,0,0,.05l-.42.19A25.42,25.42,0,0,1,289,30a18.27,18.27,0,0,1-2.08.29,12.48,12.48,0,0,1-1.33.13c-.22,0-.44,0-.66,0a5.33,5.33,0,0,0-.9.17q-.81.21-1.59.45a23.31,23.31,0,0,1,2.67.42c-2.28.79-2,0-5.29.26a10.1,10.1,0,0,1-2.06-.17c-1.12-.09-1.83-.41-2.56-.45.38-.38.62-.25,1-.45.37,0,1.43,0,1.76,0-.5-.74-2.31-1-3-1.22a10.75,10.75,0,0,1-1.72-.73l-2-1c-.11-.05-.23-.16-.13-.22a.38.38,0,0,1,.2,0A7.92,7.92,0,0,1,273.29,28Z" transform="translate(0 -15.48)"/><path d="M46.11,49.06a2.86,2.86,0,0,1,1.62.74c.39.35.66.75,1,1.11.59.56,1.44,1,1.94,1.6a1.76,1.76,0,0,1,.23,2.1,3.93,3.93,0,0,0-.42.72c-.26.81.67,1.61.4,2.42a8.12,8.12,0,0,1-4-2.55c-.28-.37-.5-.76-.77-1.14a15.94,15.94,0,0,0-2.44-2.51,8.32,8.32,0,0,0-2.87-1.39,10.41,10.41,0,0,1-5.75-.85l-2.66.41a11,11,0,0,0-1.62.33,11.73,11.73,0,0,0-1.41.6,17.23,17.23,0,0,1-4.07,1.47,10.84,10.84,0,0,1-3.82,0,18.91,18.91,0,0,0-3.1-.52c1.78-.35,3.34-1.12,5.18-1.31a5.81,5.81,0,0,0,2.11-.81,30.41,30.41,0,0,1,4.79-1.8,11.32,11.32,0,0,1,3.1-.4l4.08.27A9.26,9.26,0,0,1,40.54,47a21.76,21.76,0,0,1,3.07.28l5.93.82C48.24,48.37,47.4,48.84,46.11,49.06Z" transform="translate(0 -15.48)"/><path d="M82.08,37.83a6.38,6.38,0,0,0-2.26-1.51,10.89,10.89,0,0,0-3.14-.45,7.44,7.44,0,0,0-2.46.19A1.92,1.92,0,0,0,72.68,38,3.63,3.63,0,0,0,74,40c2.09,1.91,5.12,3.35,8.09,4.75,2.41,1.14,4.79,2.31,7.25,3.41a23.68,23.68,0,0,0-2.26-4.7A38.65,38.65,0,0,0,82.08,37.83Z" transform="translate(0 -15.48)"/><path d="M64.43,40.81A21.54,21.54,0,0,0,60,40.08a4.9,4.9,0,0,0-3.15.7c-.68.59-.45,1.44.24,2a8.51,8.51,0,0,0,2.76,1.31A175,175,0,0,0,81,49.2,38,38,0,0,0,64.43,40.81Z" transform="translate(0 -15.48)"/><path d="M261.87,39.64a6.38,6.38,0,0,1,2.26-1.51,10.89,10.89,0,0,1,3.14-.45,7.44,7.44,0,0,1,2.46.19,1.92,1.92,0,0,1,1.54,1.91,3.63,3.63,0,0,1-1.35,2.07c-2.09,1.91-5.12,3.35-8.09,4.75-2.41,1.14-4.79,2.31-7.25,3.41a23.68,23.68,0,0,1,2.26-4.7A38.65,38.65,0,0,1,261.87,39.64Z" transform="translate(0 -15.48)"/><path d="M279.53,42.61a21.54,21.54,0,0,1,4.43-.72,4.9,4.9,0,0,1,3.15.7c.68.59.45,1.44-.24,2a8.5,8.5,0,0,1-2.76,1.31A175,175,0,0,1,262.93,51,38,38,0,0,1,279.53,42.61Z" transform="translate(0 -15.48)"/><path class="cls-6" d="M282.19,68.42l-.07,0c-.5-.07-1.05.28-.72.58a.84.84,0,0,0,.62.22c.43,0,.7-.29.49-.53l.06.21a.3.3,0,0,0-.16-.38l0,0-.49.53h.05c.64.07.87-.45.27-.6Z" transform="translate(0 -15.48)"/><path class="cls-6" d="M285.86,72.54a1.16,1.16,0,0,0,.45-.09c.2-.09.2-.25,0-.34a1.16,1.16,0,0,0-.45-.09c-.54,0-.54.56,0,.52Z" transform="translate(0 -15.48)"/><path class="cls-6" d="M288.18,76.26c.06,0,.06-.05,0-.05s-.06.05,0,.05Z" transform="translate(0 -15.48)"/><path class="cls-6" d="M298.71,82.54c0,.37.57.61,1.11.64a1.84,1.84,0,0,0,1.18-.3c.76-.56.17-1.36-.86-1.58s-2.34.16-2,.92a1.31,1.31,0,0,0,1,.66,1.89,1.89,0,0,0,1.51-.22.23.23,0,0,0,0-.34,1.62,1.62,0,0,0-.93-.29c-.31,0,0,0-.09,0q-.32.22-.12.2h.06l.25.07s0,0,0,0,.2-.09.21,0-.33-.12-.41-.13c-.47-.07-.86.14-.89.42Z" transform="translate(0 -15.48)"/><path class="cls-6" d="M300.06,79.07,300,79a.37.37,0,0,0-.46,0l-.06.07c-.32.39.89.39.58,0Z" transform="translate(0 -15.48)"/><path class="cls-6" d="M299.42,77.24l-.37,0c-.19,0-.26.15-.15.22l.21.14c.4.25.8-.28.31-.33Z" transform="translate(0 -15.48)"/><path class="cls-6" d="M297.26,73.9a.48.48,0,0,0-.1-.3.3.3,0,0,0-.46,0,.48.48,0,0,0-.1.3c0,.27.66.27.67,0Z" transform="translate(0 -15.48)"/><path class="cls-6" d="M288.47,66.65a2.24,2.24,0,0,0-.91-.45c-.4-.1-.69.18-.63.39a1.43,1.43,0,0,0,.59.65,1,1,0,0,0,1,0c.28-.17.22-.41,0-.59Z" transform="translate(0 -15.48)"/><path class="cls-6" d="M277.6,69.4c.32,0,.32-.31,0-.31s-.32.31,0,.31Z" transform="translate(0 -15.48)"/><path class="cls-6" d="M280.06,77.47a1.19,1.19,0,0,0,.57.32c.19,0,.41-.07.4-.19s-.1-.25-.25-.39-1,0-.72.26Z" transform="translate(0 -15.48)"/><path class="cls-6" d="M281.52,88.19l0-.08a.25.25,0,0,0-.38,0l0,.08c-.1.23.56.23.45,0Z" transform="translate(0 -15.48)"/><path class="cls-6" d="M227.58,98.74c1,0,1-1,0-1s-1,1,0,1Z" transform="translate(0 -15.48)"/><path class="cls-6" d="M231.77,97.67c.16-.11.28-.22.24-.38s-.11-.16-.28-.17a1,1,0,0,0-.61.15c-.43.25.25.67.64.4Z" transform="translate(0 -15.48)"/><path class="cls-6" d="M234.58,96.09a.48.48,0,0,1,.08.16c0,.11.32.11.35,0a.48.48,0,0,1,.08-.16c.15-.26-.66-.26-.5,0Z" transform="translate(0 -15.48)"/><path class="cls-6" d="M239.52,98.2c.27,0,.27-.26,0-.26s-.27.26,0,.26Z" transform="translate(0 -15.48)"/><path class="cls-6" d="M241.94,98.48c.12,0,.12-.12,0-.12s-.12.12,0,.12Z" transform="translate(0 -15.48)"/><path class="cls-6" d="M245.21,99l.2.08c.13,0,.26,0,.2-.12a.6.6,0,0,0-.13-.13c-.15-.12-.46.07-.27.17Z" transform="translate(0 -15.48)"/><path class="cls-6" d="M250.34,98.35l-.07,0a.23.23,0,0,0,0,.42l.07,0c.37.2,1,.07,1-.25s-.62-.46-1-.25Z" transform="translate(0 -15.48)"/><path class="cls-6" d="M245.7,93.36c.26-.27-.12-.5-.55-.34s.21.7.55.34Z" transform="translate(0 -15.48)"/><path class="cls-6" d="M208.12,76.13c.62,0,.62-.6,0-.6s-.62.6,0,.6Z" transform="translate(0 -15.48)"/><path class="cls-6" d="M212,76c.37,0,.63-.27.27-.4s-.76.33-.27.4Z" transform="translate(0 -15.48)"/><path class="cls-6" d="M213.66,76.65s0,0,0,0,0,0,0,0Z" transform="translate(0 -15.48)"/><path class="cls-6" d="M224,77.16a1.42,1.42,0,0,0,.47,0c.14,0,.15-.15,0-.18a1.42,1.42,0,0,0-.47,0c-.21,0-.21.18,0,.2Z" transform="translate(0 -15.48)"/><path class="cls-6" d="M228.81,75.32c.34,0,.57-.24.38-.43a.3.3,0,0,0-.33,0l-.13.07c-.46,0-.38.43.09.39Z" transform="translate(0 -15.48)"/><path class="cls-6" d="M235.38,74.22c.82,0,.82-.79,0-.79s-.82.79,0,.79Z" transform="translate(0 -15.48)"/><path class="cls-6" d="M239.24,77.83c.5,0,.5-.48,0-.48s-.5.48,0,.48Z" transform="translate(0 -15.48)"/><path class="cls-6" d="M196.89,78.76c.42,0,.42-.4,0-.4s-.42.4,0,.4Z" transform="translate(0 -15.48)"/><path class="cls-6" d="M194.89,76.2l-.11,0c-.16,0-.16.21,0,.26l.11,0c.57.17.57-.49,0-.32Z" transform="translate(0 -15.48)"/><path class="cls-6" d="M191.58,76.06l-.55.05c-.12,0-.12.14,0,.15l.55.05c.33,0,.34-.28,0-.25Z" transform="translate(0 -15.48)"/><path class="cls-6" d="M179.26,75l-.42-.11c-.57-.12-.84.38-.39.57l.27.1c.6.19,1.14-.37.53-.56Z" transform="translate(0 -15.48)"/><path class="cls-6" d="M153.28,72.05q.06-.14,0-.08a.37.37,0,0,0-.15.16.26.26,0,0,0,0,.19c0,.18.43.31.7.25.48-.11.73-.39.45-.68s-1.05-.17-1,.18Z" transform="translate(0 -15.48)"/><path class="cls-6" d="M150.85,74.35l-.08.08c-.11.1,0,.23.21.23l.17,0c.37.07.68-.19.49-.4a.58.58,0,0,0-.8.06Z" transform="translate(0 -15.48)"/><path class="cls-6" d="M105.37,67.47a5.5,5.5,0,0,0-1.23-.07c-.3.06-.52.26-.42.46.23.45,1.17.53,1.83.43s.56-.8-.18-.82Z" transform="translate(0 -15.48)"/><path class="cls-6" d="M95.8,66.92l-.07,0a.19.19,0,0,0,0,.34l.07,0c.29.21.84,0,.84-.22s-.56-.42-.84-.22Z" transform="translate(0 -15.48)"/><path class="cls-6" d="M93.08,66.72l-.29-.08c-.11,0-.21.06-.1.11l.27.1c.14,0,.26-.09.12-.13Z" transform="translate(0 -15.48)"/><path class="cls-6" d="M93.45,64c.34,0,.34-.33,0-.33s-.34.33,0,.33Z" transform="translate(0 -15.48)"/><path class="cls-6" d="M99.09,60.21a.79.79,0,0,0,.47.13c.21,0,.39-.11.39-.24s-.06-.2-.21-.29c-.43-.25-1.06.14-.65.4Z" transform="translate(0 -15.48)"/><path class="cls-6" d="M86,69.63l-.09,0c-.13,0-.23.15-.22.24v0c0,.13.16.22.38.23h.07a.53.53,0,0,0,.39-.14l0-.05c.18-.24-.18-.47-.57-.35Z" transform="translate(0 -15.48)"/><path class="cls-6" d="M84.5,72.16c.4,0,.4-.38,0-.38s-.4.38,0,.38Z" transform="translate(0 -15.48)"/><path class="cls-6" d="M81.8,75.07h-.14c-.1,0-.11.09,0,.1h.14c.12,0,.12-.13,0-.12Z" transform="translate(0 -15.48)"/><path class="cls-6" d="M98.1,78.21a.39.39,0,0,0-.27-.39.35.35,0,0,0-.23,0,.39.39,0,0,0-.27.39c0,.31.82.31.78,0Z" transform="translate(0 -15.48)"/><path class="cls-6" d="M107,77.86l.13,0c.11,0,.11-.12,0-.14l-.13,0c-.25,0-.25.23,0,.19Z" transform="translate(0 -15.48)"/><path class="cls-6" d="M89,99.23c.41,0,.41-.39,0-.39s-.41.39,0,.39Z" transform="translate(0 -15.48)"/><path class="cls-6" d="M129,97.5l.41.2c.73.35,1.58-.48.74-.78l-.3-.1c-.67-.21-1.49.34-.85.68Z" transform="translate(0 -15.48)"/><path class="cls-6" d="M22.55,73a1.13,1.13,0,0,1,.41,0l-.35-.54a1,1,0,0,1-.17.17c-.17.12-.26.32-.1.46a1.7,1.7,0,0,0,.57.34v-.67h0c-.59-.11-1.1.39-.62.66a3,3,0,0,0,1.8.51c.22,0,.4-.21.31-.34-.23-.34-.77-.5-1.22-.72l-.62.66a1.71,1.71,0,0,0,1-.09c.38-.16.43-.52,0-.67a.31.31,0,0,1-.14-.06l-.1.46a1.17,1.17,0,0,0,.38-.43c.14-.29-.3-.49-.73-.45a3.17,3.17,0,0,0-.82.15c-.51.18-.17.72.41.6Z" transform="translate(0 -15.48)"/><path class="cls-6" d="M27,72.09,27,72a.64.64,0,0,0-.61,0l-.07,0c-.32.2-.09.56.38.56s.69-.36.38-.56Z" transform="translate(0 -15.48)"/><path class="cls-6" d="M28.56,70.77l-.05-.08a.37.37,0,0,0-.56,0l-.05.08c-.23.34.9.35.67,0Z" transform="translate(0 -15.48)"/><path class="cls-6" d="M64.72,74.67a.35.35,0,0,0,.18-.25c0-.09-.15-.19-.29-.18a.85.85,0,0,0-.4.11c-.36.19.21.54.51.32Z" transform="translate(0 -15.48)"/><path class="cls-6" d="M34.08,86.07c-.06.15-.12.29,0,.43a.24.24,0,0,0,.31.05.61.61,0,0,0,.3-.38c.1-.23-.49-.33-.58-.1Z" transform="translate(0 -15.48)"/><path class="cls-6" d="M35.33,89.13c.06,0,.06-.05,0-.05s-.06.05,0,.05Z" transform="translate(0 -15.48)"/><path class="cls-6" d="M37,90.35l.06.07a.36.36,0,0,0,.45,0l.06-.07c.31-.38-.87-.38-.56,0Z" transform="translate(0 -15.48)"/><path class="cls-6" d="M39,91.41c.42,0,.42-.4,0-.4s-.42.4,0,.4Z" transform="translate(0 -15.48)"/><path class="cls-6" d="M44,88.66l-.13,0c-.13,0-.13.14,0,.16l.13,0c.26,0,.26-.22,0-.19Z" transform="translate(0 -15.48)"/><path class="cls-6" d="M50.68,92.3c.06,0,.06-.05,0-.05s-.06.05,0,.05Z" transform="translate(0 -15.48)"/><path class="cls-6" d="M63.31,98a1,1,0,0,0,.24-.17c.12-.1,0-.24-.22-.24a1.92,1.92,0,0,0-.38,0c-.55.08-.14.64.36.38Z" transform="translate(0 -15.48)"/><path class="cls-6" d="M63,94.17l-.1,0c-.2.09-.2.24,0,.33l.1,0c.25.11.59,0,.59-.21s-.34-.32-.59-.21Z" transform="translate(0 -15.48)"/><path class="cls-6" d="M60.46,92.23l-.33-.13c-.13-.05-.29.05-.21.13a1.76,1.76,0,0,1,.2.21c.18.23.72-.1.34-.21Z" transform="translate(0 -15.48)"/><path class="cls-6" d="M55.15,88.27c-.06,0-.05-.12-.08-.18s-.09-.11-.13-.17a.74.74,0,0,0-.66-.31h0l.48.17-.07-.06a.67.67,0,0,0-.83,0l-.05.06.33-.16h0c-.38.05-.55.31-.48.52.13.39.51.49,1.05.63s.77-.3.48-.51Z" transform="translate(0 -15.48)"/><path class="cls-6" d="M26.4,91.5a1,1,0,0,0,.34-.51c0-.11-.15-.24-.34-.16a1.84,1.84,0,0,0-.66.43c-.28.25.4.5.66.24Z" transform="translate(0 -15.48)"/><path class="cls-6" d="M331.34,91.68a.41.41,0,0,0-.18-.22.55.55,0,0,0-.53,0,.41.41,0,0,0-.18.22c-.13.46,1,.46.89,0Z" transform="translate(0 -15.48)"/><path class="cls-6" d="M318.78,79.32a.38.38,0,0,0-.06-.16.19.19,0,0,0-.29,0,.38.38,0,0,0-.06.16c0,.16.44.16.41,0Z" transform="translate(0 -15.48)"/><path class="cls-6" d="M318.71,75.84l-.24-.11c-.17-.08-.43.08-.3.18l.18.15c.25.2.69-.06.35-.22Z" transform="translate(0 -15.48)"/><path class="cls-6" d="M354.6,70.92a2.35,2.35,0,0,0,.25.25s.15,0,.12,0a2,2,0,0,0-.19-.29c-.06-.08-.25,0-.19.07Z" transform="translate(0 -15.48)"/><path class="cls-6" d="M343.6,77.4l-.33-.08c-.15,0-.3.07-.26.16a1.06,1.06,0,0,0,.13.2c.24.31,1-.13.45-.28Z" transform="translate(0 -15.48)"/><path class="cls-6" d="M343,87a8.14,8.14,0,0,0,.73.55c.21.14.57,0,.42-.2a6.68,6.68,0,0,0-.61-.55c-.24-.2-.78,0-.54.2Z" transform="translate(0 -15.48)"/><path class="cls-6" d="M352.86,92.5a1.19,1.19,0,0,0-.43.4c-.07.13.16.27.37.23a2,2,0,0,0,.65-.26c.4-.23-.23-.61-.6-.37Z" transform="translate(0 -15.48)"/><path class="cls-6" d="M289.9,98l-.11-.07a.57.57,0,0,0-.38-.06c-.16,0-.22.07-.28.17s0,.18.1.24l.11.07c.36.22.92-.12.56-.35Z" transform="translate(0 -15.48)"/><path class="cls-6" d="M311.88,100.89c.38,0,.38-.36,0-.36s-.38.36,0,.36Z" transform="translate(0 -15.48)"/><path class="cls-6" d="M346.67,94.13c.49,0,.5-.48,0-.48s-.5.48,0,.48Z" transform="translate(0 -15.48)"/><path class="cls-6" d="M235.42,116.26a2.34,2.34,0,0,0,.59.11c.21,0,.29-.16.16-.24a1.56,1.56,0,0,0-.44-.2c-.36-.11-.67.21-.31.33Z" transform="translate(0 -15.48)"/><path class="cls-6" d="M240.55,116.08a.68.68,0,0,0,.21-.19c.11-.14-.11-.27-.33-.2a1.08,1.08,0,0,0-.31.13c-.28.16.16.44.42.26Z" transform="translate(0 -15.48)"/><path class="cls-6" d="M246.39,116.11a3.43,3.43,0,0,0,.69-.06c.15,0,.15-.15,0-.19a3.45,3.45,0,0,0-.69-.06c-.33,0-.33.32,0,.32Z" transform="translate(0 -15.48)"/><path class="cls-6" d="M253.46,115.42c.11-.14.26-.19.28-.35a.39.39,0,0,0-.13-.33.58.58,0,0,0-.55-.09.82.82,0,0,0-.41.23c-.09.11,0,.19-.07.3-.09.31.62.55.88.23Z" transform="translate(0 -15.48)"/><path class="cls-6" d="M252.08,113.41c-.19.25.3.54.66.32s-.41-.65-.66-.32Z" transform="translate(0 -15.48)"/><path class="cls-6" d="M210.73,126.56c.67,0,.67-.64,0-.64s-.67.64,0,.64Z" transform="translate(0 -15.48)"/><path class="cls-6" d="M196.58,128.82a.86.86,0,0,0-.63-.42.47.47,0,0,0-.49.17.41.41,0,0,0,.14.5c.32.29,1.21.12,1-.26Z" transform="translate(0 -15.48)"/><path class="cls-6" d="M192.31,128c.09-.23.19-.4.09-.63s-.26-.14-.39-.06a1,1,0,0,0-.43.57c-.13.29.61.42.73.13Z" transform="translate(0 -15.48)"/><path class="cls-6" d="M191.66,124l.11-.1c.08-.1,0-.26-.18-.28-.51-.05-.75.22-.68.51s.83.18.75-.13Z" transform="translate(0 -15.48)"/><path class="cls-6" d="M176.83,126c.19.6,1.78.37,1.53-.24-.13-.31-.76-.25-.92,0q.1-.11.05-.07-.25,0,.21.08c-.29-.29-1-.1-.86.23Z" transform="translate(0 -15.48)"/><path class="cls-6" d="M158.65,112.74a.53.53,0,0,0-.22-.48.36.36,0,0,0-.44,0,.53.53,0,0,0-.22.48c0,.35.88.35.87,0Z" transform="translate(0 -15.48)"/><path class="cls-6" d="M123.63,115.3a.93.93,0,0,0-.67.17.11.11,0,0,0,0,.17.93.93,0,0,0,.67.17c.53,0,.53-.51,0-.5Z" transform="translate(0 -15.48)"/><path class="cls-6" d="M119.31,116.94c.4,0,.4-.39,0-.39s-.4.39,0,.39Z" transform="translate(0 -15.48)"/><path class="cls-6" d="M39.64,49.72c-.36,0-.55.27-.33.46a.37.37,0,0,0,.3.07.43.43,0,0,0,.17-.06.09.09,0,0,0,0-.16s0,0,0,0-.07,0-.14,0c.36,0,.35-.36,0-.34Z" transform="translate(0 -15.48)"/><path class="cls-6" d="M64.78,52a1.58,1.58,0,0,0-.08-.58.31.31,0,0,0-.47,0,1.58,1.58,0,0,0-.08.58c0,.25.64.25.63,0Z" transform="translate(0 -15.48)"/><path class="cls-6" d="M72.61,29.92a2.32,2.32,0,0,0-.13-.57c0-.11-.32-.11-.35,0a2.32,2.32,0,0,0-.13.57c0,.25.63.25.62,0Z" transform="translate(0 -15.48)"/><path class="cls-6" d="M260.69,50.83a.64.64,0,0,0-.74,0c-.28.21-.11.55.37.55s.64-.34.37-.55Z" transform="translate(0 -15.48)"/><path class="cls-6" d="M314.29,52.36c.46,0,.46-.44,0-.44s-.46.44,0,.44Z" transform="translate(0 -15.48)"/><path class="cls-6" d="M319.54,51.21c.13-.09.18-.13.21-.25s-.11-.21-.31-.19a.86.86,0,0,0-.4.13c-.34.18.19.51.49.3Z" transform="translate(0 -15.48)"/><path class="cls-6" d="M327.57,49.85c.56,0,.56-.53,0-.53s-.56.53,0,.53Z" transform="translate(0 -15.48)"/><path class="cls-6" d="M327.79,48.34c.49,0,.5-.48,0-.48s-.5.48,0,.48Z" transform="translate(0 -15.48)"/><path class="cls-6" d="M322.61,49.61l.21-.14c.05,0,0-.09-.09-.05l-.22.13c-.07,0,0,.1.1.06Z" transform="translate(0 -15.48)"/><path class="cls-6" d="M305,27.94a1.32,1.32,0,0,0-.25-.18c-.32-.18-.78.1-.48.3a1.63,1.63,0,0,0,.3.16c.26.11.62-.11.44-.27Z" transform="translate(0 -15.48)"/><path class="cls-6" d="M301.67,28.6c.32,0,.32-.31,0-.31s-.32.31,0,.31Z" transform="translate(0 -15.48)"/><path class="cls-6" d="M301.86,28.6l.22.13s.08,0,0,0l-.21-.14s-.1,0-.06,0Z" transform="translate(0 -15.48)"/><path class="cls-6" d="M157.35,140.15l0,.13c-.09.26.25.47.68.42l.22,0c.52-.07.65-.5.3-.71s-1-.13-1.15.19Z" transform="translate(0 -15.48)"/><path class="cls-6" d="M163.42,142.13l.12,0a.44.44,0,0,0,.35-.22l0-.08c.14-.42-.67-.75-1.19-.43s0,.83.69.74Z" transform="translate(0 -15.48)"/><path class="cls-6" d="M166.82,143.09c.09,0,.09-.09,0-.09s-.09.09,0,.09Z" transform="translate(0 -15.48)"/><path class="cls-6" d="M212.72,157.2l.13,0c.26-.09.26-.34,0-.43l-.13,0c-.92-.33-.92.86,0,.53Z" transform="translate(0 -15.48)"/><path class="cls-6" d="M173.11,157.43c.09,0,.09-.09,0-.09s-.09.09,0,.09Z" transform="translate(0 -15.48)"/><path class="cls-6" d="M198.22,143.28a2.15,2.15,0,0,0,.38-.15c.19-.09,0-.27-.22-.23a2.59,2.59,0,0,0-.43.1c-.3.09,0,.38.27.28Z" transform="translate(0 -15.48)"/><path class="cls-6" d="M202,142.79l.4.11c.12,0,.18-.08.08-.12a2.26,2.26,0,0,0-.35-.12c-.15,0-.28.09-.13.14Z" transform="translate(0 -15.48)"/><path class="cls-6" d="M202.95,143.53c.32,0,.32-.31,0-.31s-.32.31,0,.31Z" transform="translate(0 -15.48)"/><path class="cls-6" d="M208.89,141.92l.13-.06c.18-.08.18-.22,0-.31l-.13-.06c-.72-.33-.72.75,0,.42Z" transform="translate(0 -15.48)"/><path class="cls-6" d="M253.36,141.77l-.05-.1a.29.29,0,0,0-.43,0l-.05.1c-.15.28.69.28.54,0Z" transform="translate(0 -15.48)"/><path class="cls-6" d="M255.36,141l.1-.14c.1-.15-.1-.27-.34-.21l-.23.06c-.54.14.24.63.47.29Z" transform="translate(0 -15.48)"/><path class="cls-6" d="M257.43,139.78a3.17,3.17,0,0,0,1.2-.31c.12-.09,0-.24-.16-.24a2.83,2.83,0,0,0-1.15.39c-.13.05-.05.19.11.16Z" transform="translate(0 -15.48)"/><path class="cls-6" d="M223.61,139.21c.81,0,.81-.78,0-.78s-.81.78,0,.78Z" transform="translate(0 -15.48)"/><path d="M117.35,59.79a.66.66,0,0,0-.22-.54,1.2,1.2,0,0,0-1.48,0,.66.66,0,0,0-.22.54c0,.76,1.92.76,1.92,0Z" transform="translate(0 -15.48)"/><path d="M121.71,55.16a1.66,1.66,0,0,0-.64.31.26.26,0,0,0,0,.39,1.68,1.68,0,0,0,.64.31c.63.21,1.43,0,1.43-.51s-.8-.72-1.43-.51Z" transform="translate(0 -15.48)"/><path d="M81,51.55l-1,0c-.66,0-1.22.33-1.22.75s.56.72,1.22.75l1,0c1.63,0,1.63-1.61,0-1.56Z" transform="translate(0 -15.48)"/><path d="M66.06,58.5a8.86,8.86,0,0,0-1.33.46.47.47,0,0,0-.16.76,1.38,1.38,0,0,0,1.15.29,9.75,9.75,0,0,0,1.39-.4c.5-.16.65-.59.37-.88a1.48,1.48,0,0,0-1.42-.23Z" transform="translate(0 -15.48)"/><path d="M53.78,66.29l-.13,0c-.76.15-.76.81,0,1l.13,0c.53.1,1.07-.18,1.07-.51s-.54-.61-1.07-.51Z" transform="translate(0 -15.48)"/><path d="M46.95,64.08l-.28,0c-.27,0-.27.31,0,.34l.28,0c.54.06.55-.46,0-.4Z" transform="translate(0 -15.48)"/><path d="M45.58,62.13a1,1,0,0,0-1.14,0c-.46.32-.16.85.57.85s1-.54.57-.85Z" transform="translate(0 -15.48)"/><path d="M245.09,60.22l-.27,0c-.39.07-.39.42,0,.49l.27,0c.79.14.79-.73,0-.58Z" transform="translate(0 -15.48)"/><path d="M264.37,55.07a1.13,1.13,0,0,0,.5-.09c.26-.12.26-.32,0-.44a1.13,1.13,0,0,0-.5-.09c-.64,0-.64.63,0,.62Z" transform="translate(0 -15.48)"/><path d="M266.69,56.23c.06,0,.06-.05,0-.05s-.06.05,0,.05Z" transform="translate(0 -15.48)"/><path d="M253.78,67a4,4,0,0,0,4.36.06l-.79.2c1.22,0,1.78-1,.67-1.41s-2.41.44-1.63,1.07l-.11-.53c.06-.08,0,0,0,0s-.21,0-.32,0a.73.73,0,0,1-.56-.18c-.71-.55-2.28.19-1.59.76Z" transform="translate(0 -15.48)"/><path d="M280.62,59c1.29,0,1.29-1.24,0-1.24s-1.29,1.24,0,1.24Z" transform="translate(0 -15.48)"/><path d="M280.62,61.16c.6,0,.6-.58,0-.58s-.6.58,0,.58Z" transform="translate(0 -15.48)"/><path d="M281.66,64.28a.5.5,0,0,0,.3.42.87.87,0,0,0,.79,0,.49.49,0,0,0,.3-.42c.11-.55-1.5-.55-1.39,0Z" transform="translate(0 -15.48)"/><path d="M310.06,64.75a.58.58,0,0,0-.11-.93,2,2,0,0,0-2-.08.64.64,0,0,0,0,1.18,1.91,1.91,0,0,0,2.11-.17Z" transform="translate(0 -15.48)"/><path d="M314.8,62.81c.2,0,.2-.19,0-.19s-.2.19,0,.19Z" transform="translate(0 -15.48)"/><path d="M308.76,64.48c.06,0,.06-.05,0-.05s-.06.05,0,.05Z" transform="translate(0 -15.48)"/><path d="M331.21,66.09c.48-.14,1.1-.27,1.26-.61.07-.14-.08-.27-.29-.32a3.15,3.15,0,0,0-1.58.29c-.69.22-.08.85.61.64Z" transform="translate(0 -15.48)"/><path d="M333.82,65.86l.42.15c.6.22,1.13-.4.53-.56l-.45-.12c-.56-.15-1.06.32-.49.52Z" transform="translate(0 -15.48)"/><path d="M340.18,65.32c1,0,1-.92,0-.92s-1,.92,0,.92Z" transform="translate(0 -15.48)"/><path d="M347,91.38a.65.65,0,0,0-.27-.52.54.54,0,0,0-.52,0,.65.65,0,0,0-.27.52c-.09.42,1.15.42,1.06,0Z" transform="translate(0 -15.48)"/><path d="M350.1,85a.86.86,0,0,0-1.44,0c-.17.29.27.58.72.58s.89-.3.72-.58Z" transform="translate(0 -15.48)"/><path d="M34.18,100.74l-.24-.07c-.81-.22-1.53.22-1.17.73l.11.15a1.35,1.35,0,0,0,1.51.12c.4-.25.38-.78-.19-.93Z" transform="translate(0 -15.48)"/><path d="M35.65,103a2.62,2.62,0,0,0,1.06-.24.27.27,0,0,0,0-.5,2.63,2.63,0,0,0-1.06-.24c-.52-.05-1,.13-1,.49s.52.54,1,.49Z" transform="translate(0 -15.48)"/><path d="M47,105.15a1.39,1.39,0,0,0,.34,0c.16,0,.16-.18,0-.21a1.39,1.39,0,0,0-.34,0c-.28,0-.28.27,0,.27Z" transform="translate(0 -15.48)"/><path d="M94.63,107.1h-.15c-1.27.06-1.27,1.16,0,1.22h.15c1.29.07,1.29-1.3,0-1.24Z" transform="translate(0 -15.48)"/><path d="M95.12,102.08a10,10,0,0,0,1.25.54c.75.26,1.78,0,2-.5a1.72,1.72,0,0,0-.15-1.73c-.64-.79-2.57-.38-2.59.43a1.32,1.32,0,0,0,.11.42c0-.1,0,.08,0,.11a2,2,0,0,1-.06.54l1.72-.81a10.56,10.56,0,0,0-1.19-.18,1.58,1.58,0,0,0-1.29.32.52.52,0,0,0,.18.86Z" transform="translate(0 -15.48)"/><path d="M102.46,102.6c1.31,0,1.31-1.26,0-1.26s-1.31,1.26,0,1.26Z" transform="translate(0 -15.48)"/><path d="M106.42,104.19a1.87,1.87,0,0,0,1.71.21c.52-.32,0-.79-.34-1.06-.83-.58-2.31.34-1.37.85Z" transform="translate(0 -15.48)"/><path d="M91.57,32c-.06,0-.53-.27-.29-.15a1.58,1.58,0,0,0-.34-.15q.12.07,0,0t0,0,0,0,0,0,0,0c.13-.46-.24-.91-1.05-1s-1.35.3-1.43.77c-.16.89,1.49,2.05,3,1.46.51-.21.72-.7.2-1Z" transform="translate(0 -15.48)"/><path d="M78.09,30.75a1.63,1.63,0,0,0-1,.23.3.3,0,0,0,0,.54,1.62,1.62,0,0,0,1,.23c1.05,0,1.05-1,0-1Z" transform="translate(0 -15.48)"/><path d="M71.47,33.91a2.1,2.1,0,0,0,1,.06c.31-.08.53-.26.43-.47s-.43-.37-.77-.51c-.92-.4-1.82.68-.63.92Z" transform="translate(0 -15.48)"/><path d="M173.32,64.82l0-.12c.05-.33-.53-.68-1-.65h-.19a1.42,1.42,0,0,0-1.12.47.57.57,0,0,0,.25.83,1.84,1.84,0,0,0,1.19.19c.56-.1.84-.39.9-.73Z" transform="translate(0 -15.48)"/><path d="M184,63.78a1,1,0,0,0-1.65,0c-.17.33.29.67.83.67s1-.34.83-.67Z" transform="translate(0 -15.48)"/><path d="M184.28,60.36c.06,0,.06-.05,0-.05s-.06.05,0,.05Z" transform="translate(0 -15.48)"/><path d="M228.71,56.72l-.07,0a1.74,1.74,0,0,0-1.67,0l-.07,0c-.34.25-.47.55-.26.86a1.43,1.43,0,0,0,1.17.48,1.59,1.59,0,0,0,1.1-.39c.31-.33.17-.68-.2-1Z" transform="translate(0 -15.48)"/><path d="M240.29,33.2c1.06,0,1.07-1,0-1s-1.07,1,0,1Z" transform="translate(0 -15.48)"/><path d="M16.57,102.47c.67,0,.67-.64,0-.64s-.67.64,0,.64Z" transform="translate(0 -15.48)"/><path d="M25.28,98.21c-.78,0-2.5,0-2.5.71s1.71.75,2.5.71c.62,0,1.15-.31,1.15-.71s-.53-.68-1.15-.71Z" transform="translate(0 -15.48)"/><path d="M333.73,100.54a2,2,0,0,0,.57-.48c.54-.63-.54-1.3-1.56-1a2.8,2.8,0,0,0-.77.35.6.6,0,0,0,0,1.09,1.87,1.87,0,0,0,1.76,0Z" transform="translate(0 -15.48)"/><path d="M124.74,110.49c.44,1.31,2.58,2.48,3.94,3.49,1.71,1.27,3.46,2.5,5.24,3.73v-1.34q-4.42,3-9.16,5.73c-1.47.86.75,2.22,2.21,1.37q4.75-2.77,9.11-5.76a.73.73,0,0,0,0-1.34c-1.69-1.16-3.36-2.33-5-3.51-1.42-1-2.86-2.54-4.87-3.07-.8-.21-1.64.13-1.46.69Z" transform="translate(0 -15.48)"/><text class="cls-7" transform="translate(129.25 73.67)">score</text><path class="cls-8" d="M116.52,31.44c-1.87.73-2.79,1.1-4.64,1.87l6.54,17.79c-3.91,1.71-5.83,2.61-9.62,4.52-2.9-7.14-4.33-10.72-7.18-17.87-2,.92-3,1.39-4.94,2.36-1.31-3.06-2-4.58-3.26-7.64A186.48,186.48,0,0,1,115,23.55C115.62,26.71,115.91,28.29,116.52,31.44Z" transform="translate(0 -15.48)"/><path class="cls-8" d="M127.2,30.78l.08,0a5.54,5.54,0,0,1,1.93-2.07,9.49,9.49,0,0,1,6-1.24,6.33,6.33,0,0,1,2.52,1,6.15,6.15,0,0,1,1.79,1.84,6.8,6.8,0,0,1,1,2.5c1,5.09,1.43,7.63,2.4,12.72-3.05.78-4.57,1.2-7.58,2.1l-3-11.85a1.27,1.27,0,0,0-.71-.84,2,2,0,0,0-1.36-.11,2.11,2.11,0,0,0-1.17.66,1.17,1.17,0,0,0-.25,1.14l3.27,11.77c-3.11.48-4.66.75-7.77,1.36-3.4-10-5.11-15.06-8.55-25.09,3.66-1.27,5.5-1.87,9.21-3C125.86,25.29,126.31,27.12,127.2,30.78Z" transform="translate(0 -15.48)"/><path class="cls-8" d="M165.28,40.69a18.24,18.24,0,0,1-4.5,2.45,23.11,23.11,0,0,1-5.37,1.18,14.28,14.28,0,0,1-4.72-.21,13,13,0,0,1-4-1.57,10.67,10.67,0,0,1-3-2.69,8.72,8.72,0,0,1-1.62-3.58,9.76,9.76,0,0,1,.07-4.56,9.17,9.17,0,0,1,2-3.7,11,11,0,0,1,3.55-2.62,14.75,14.75,0,0,1,4.7-1.31,13.79,13.79,0,0,1,7.35,1,10.59,10.59,0,0,1,4.83,4.21c-4.6,3.28-6.79,5-11,8.49a3.52,3.52,0,0,0,1.15.14q.7,0,1.27-.07A7.43,7.43,0,0,0,159,37a11.91,11.91,0,0,0,2.09-1.5C162.78,37.58,163.63,38.61,165.28,40.69Zm-9.34-10.23a3,3,0,0,0-1.31-.64,5.18,5.18,0,0,0-1.53,0,3.61,3.61,0,0,0-1.42.45,3.42,3.42,0,0,0-1,.9,3.34,3.34,0,0,0-.57,1.17,3,3,0,0,0-.07,1.26,2.6,2.6,0,0,0,.23.83,3.81,3.81,0,0,0,.33.48C152.65,33.08,153.73,32.2,155.93,30.46Z" transform="translate(0 -15.48)"/><path class="cls-8" d="M192.79,23.08a11.07,11.07,0,0,1,7.79,3.85,9.63,9.63,0,0,1,1.9,3.45,8.54,8.54,0,0,1,.3,3.74,10,10,0,0,1-1.6,4.28,10.8,10.8,0,0,1-3,2.95A12,12,0,0,1,194.33,43a14.7,14.7,0,0,1-4.35.36,10,10,0,0,1-3.18-.71Q185.32,42,184,41.4L184,42.84c-2.35-.08-3.53-.1-5.88-.11,0-10.75-.08-16.13-.15-26.89,4-.23,6-.3,10-.36-.34,3.46-.51,5.19-.84,8.65a25.09,25.09,0,0,1,2.54-.84A9.72,9.72,0,0,1,192.79,23.08ZM191,36.44a5.66,5.66,0,0,0,1.64-.54,4.21,4.21,0,0,0,1.15-.87,2.77,2.77,0,0,0,.63-1.09,2.34,2.34,0,0,0,0-1.2,2.44,2.44,0,0,0-.57-1.1,3.62,3.62,0,0,0-1.11-.82,4.76,4.76,0,0,0-1.53-.44,6,6,0,0,0-1.83.07,5.56,5.56,0,0,0-1.7.58,4.19,4.19,0,0,0-1.16.92,2.67,2.67,0,0,0-.59,1.11,2.35,2.35,0,0,0,0,1.2,2.52,2.52,0,0,0,.61,1.08,3.45,3.45,0,0,0,1.1.77,5,5,0,0,0,1.51.4A6.06,6.06,0,0,0,191,36.44Z" transform="translate(0 -15.48)"/><path class="cls-8" d="M222,45.31a19.38,19.38,0,0,1-5.12,1.08,23.59,23.59,0,0,1-5.53-.37,13.91,13.91,0,0,1-4.43-1.51,12.16,12.16,0,0,1-3.28-2.6,9.9,9.9,0,0,1-2-3.39,8.41,8.41,0,0,1-.37-3.86,10,10,0,0,1,1.56-4.32,9.85,9.85,0,0,1,3.11-3,11.66,11.66,0,0,1,4.25-1.51,15.07,15.07,0,0,1,4.92.06,13.34,13.34,0,0,1,6.71,3,9.88,9.88,0,0,1,3.24,5.36c-5.49,1.85-8.15,2.86-13.3,5a3.4,3.4,0,0,0,1.05.45q.67.19,1.24.29a7.65,7.65,0,0,0,3.06,0,12.77,12.77,0,0,0,2.5-.85C220.64,41.64,221.11,42.86,222,45.31ZM216.42,33a2.77,2.77,0,0,0-1-1,5.08,5.08,0,0,0-1.45-.46,3.72,3.72,0,0,0-1.51,0,3.67,3.67,0,0,0-1.28.57,3.58,3.58,0,0,0-.93,1,3.12,3.12,0,0,0-.48,1.18,2.55,2.55,0,0,0-.06.85,3.58,3.58,0,0,0,.16.55C212.42,34.54,213.74,34,216.42,33Z" transform="translate(0 -15.48)"/><path class="cls-8" d="M225.62,42.33a15.78,15.78,0,0,0,2.19.71l1.11.27a7.93,7.93,0,0,0,1.08.18,2.42,2.42,0,0,0,.87-.06.7.7,0,0,0,.5-.49.77.77,0,0,0-.35-.88,10.93,10.93,0,0,0-1.29-.84l-1.72-1a6.63,6.63,0,0,1-1.63-1.37,5,5,0,0,1-1-1.95,5.17,5.17,0,0,1,.11-2.76,5,5,0,0,1,1.09-2,5.63,5.63,0,0,1,2.2-1.48,9.78,9.78,0,0,1,3.42-.61,16.33,16.33,0,0,1,4.64.68q1,.28,2,.63t1.84.73l1.58.72q.72.34,1.2.6L241.36,39q-.89-.49-1.78-.9a14.25,14.25,0,0,0-2-.73l-.74-.2a8.2,8.2,0,0,0-1-.19,3.28,3.28,0,0,0-1,0,.64.64,0,0,0-.56.4.83.83,0,0,0,.37.94,11.14,11.14,0,0,0,1.36.91q.83.48,1.79,1.12a7,7,0,0,1,1.63,1.5,4.73,4.73,0,0,1,.91,2,5,5,0,0,1-.37,2.74A5.23,5.23,0,0,1,238,49.19a7.11,7.11,0,0,1-2.9,1.13,12.69,12.69,0,0,1-3.52,0,27.93,27.93,0,0,1-3.83-.73q-1.51-.4-2.93-.92A27.39,27.39,0,0,1,222,47.48l1.65-6.05Q224.64,41.92,225.62,42.33Z" transform="translate(0 -15.48)"/><path class="cls-8" d="M247.91,56.08l-1.11-.4a9.42,9.42,0,0,1-4.71-3.25c-.9-1.34-1-3-.16-5.08l2.92-7.44-2.13-.66,2.3-5.37,1.86.61.81-2.07c4-.08,6-.07,10,0l-2.27,5.06c1.33.33,2,.5,3.33.86-1.23,2.19-1.84,3.28-3.06,5.47l-2.57-1-2.42,5.4a1.91,1.91,0,0,0-.24,1.35c.11.28.53.56,1.26.85q.47.18.77.27a4.47,4.47,0,0,0,.59.12c-1.65,2.22-2.46,3.34-4.07,5.58Q248.42,56.25,247.91,56.08Z" transform="translate(0 -15.48)"/></g></g></svg>