<svg xmlns="http://www.w3.org/2000/svg" viewBox="0 0 471.87 152.77"><defs><style>.cls-1{fill:#eaebda;}.cls-2,.cls-3{fill:#594a42;}.cls-3{font-size:50px;font-family:ShowcardGothic-Reg, Showcard Gothic;}</style></defs><title>UImode</title><g id="Layer_2" data-name="Layer 2"><g id="Layer_4" data-name="Layer 4"><path class="cls-1" d="M404.88,109.42c-1,13.86-31.88,33.4-40.36,39.89,16.32-1.28,33.17-.49,49.51-.5,16.8,0,33.58,1.07,50.38.75a109.19,109.19,0,0,0-26-22.83c-8.07-5.24-17.53-9.43-23.43-17.32a1.45,1.45,0,0,1,.94-2.3C438.39,103.31,449.25,81,466.54,69q-30.74-.21-61.48-.43c0,.08,0,.15,0,.23C408.25,83.23,409.13,95.14,404.88,109.42Z"/><path class="cls-1" d="M25.32,117.6c-6.9,8.54-14.7,16.64-20.75,25.84,14.78-.2,29.47-3,44.26-2.17C63,142,77.18,142.47,91.37,143c-5.36-6.21-10-13.54-16.24-18.78C71.22,121,65.6,118,62.91,113.5a21.54,21.54,0,0,1-2.34-5.36l0,0c-2.95-7.92-5.13-16.35-4.14-24.9C57.14,76.86,59,71,59.89,64.92c-17.23-.15-35.12-2-52.15,1.21,1.52,1.13,2.89,2.46,4.42,3.78,3.4,2.94,7.31,5.17,10.78,8C30,83.72,36.54,89,45.3,92.18A1.43,1.43,0,0,1,46.1,94C42.24,104.31,31.93,109.42,25.32,117.6Z"/><path class="cls-1" d="M59.66,101.68a8.54,8.54,0,0,1,2.86-3.24c7.51-5.26,20.43-2.69,28.87-2.09,21.55,1.54,43.33-2.65,64.84-3.49,48.06-1.88,96.93-1.29,144.95,1.32,21.42,1.16,42.84,2.67,64.3,2.33,9.72-.15,21.07-.84,30.2,3.13a15.1,15.1,0,0,1,6.35,4.58,59,59,0,0,0,.38-28c-1.42-6-3.1-12.14-2.21-18.4C401.95,45.45,407,30.23,402.52,18c-3.46-9.36-13.51-7.55-21.65-9.21-10.79-2.2-21.77-2.67-32.76-3-25.3-.83-50.51.61-75.8,1-23.5.39-46.43,2.05-69.86-.56-24-2.68-47.5-1.86-71.58-1.77-12,0-23.92-.15-35.88.06-4.92.09-9.86.21-14.76.74-3.64.39-13.86.44-15.9,4.15-2.62,4.77-6.31,9.59-6.65,15.22a50.7,50.7,0,0,0,.8,10.76c1.11,7.21,2.88,14.41,3.57,21.68.81,8.56-3.11,16.38-4.09,24.73A51.21,51.21,0,0,0,59.66,101.68Z"/><path class="cls-2" d="M470.46,66.66c-21.81.72-43.61-1.07-65.43-1a1.51,1.51,0,0,0-.42.09c-1.3-10.85,2.59-22.08,3.4-32.86.68-9,.68-22.88-10.23-25.63C378.44,2.41,357.48,1.84,337.63,2c-24.42.25-48.83,1-73.25,1.2-12.44.08-24.84,1.25-37.28,1.17S202.17,2.14,189.78,1c-23.64-2.25-47.71.13-71.43.17-9.14,0-18.27-.08-27.4.32-4.88.21-9.75.67-14.6,1.32-3.1.42-9.19.66-11.79,2.7s-4,7.1-5.64,10.05a22.78,22.78,0,0,0-2.74,11c0,8.71,2.35,17.53,3.82,26.07A34.83,34.83,0,0,1,60.26,62c-19-.24-38.75-2.52-57.41,1.86C1.42,64.21.76,66.45,2.47,67c4.41,1.39,7.43,5.37,11,8.06,3.79,2.82,7.68,5.36,11.31,8.39A59.27,59.27,0,0,0,34,90c1.91,1.05,3.81,2.05,5.78,3,4.16,2,2.62,2.77,0,6.18-5.68,7.4-13.84,12.53-19.61,19.93C13.62,127.56,6,135,.27,144.1c-.6.94-.21,2.55,1.11,2.59,15.74.51,31.3-2.66,47-2.18,15.58.48,31.19,2.13,46.78,1.58A1.43,1.43,0,0,0,96.27,144c1.26-14.72-2.3-29.69.13-44.43l.76,0c24.05.33,47.95-3.87,72-4,24.63-.13,49.27-.24,73.89-.08,40.6.25,81.07,3.69,121.65,3.93a116.6,116.6,0,0,1-1.11,29.31c-.75,4.09-1.11,8.2-1.87,12.27-.59,3.13-1.82,6.2-1.15,9.37a1.31,1.31,0,0,0,.62.85,1,1,0,0,0,.72.43c17.94,1.65,36.58.3,54.6.33,17.12,0,34.21,1.18,51.33.65a1.59,1.59,0,0,0,1-2.54c-6.74-9-14.88-16-24-22.52-8.39-6-19.21-10.33-26.14-18.15,10.38-2.61,18.5-9.85,26.75-16.45,9.26-7.41,15.66-17.9,25.88-24.16C472.5,68.11,471.51,66.63,470.46,66.66ZM48.83,141.27c-14.79-.81-29.48,2-44.26,2.17,6.05-9.2,13.85-17.3,20.75-25.84C31.93,109.42,42.24,104.31,46.1,94a1.43,1.43,0,0,0-.8-1.85C36.54,89,30,83.72,22.94,77.92c-3.47-2.84-7.38-5.07-10.78-8-1.52-1.32-2.9-2.66-4.42-3.78,17-3.23,34.92-1.37,52.15-1.21C59,71,57.14,76.86,56.4,83.21c-1,8.55,1.19,17,4.14,24.9l0,0a21.54,21.54,0,0,0,2.34,5.36C65.6,118,71.22,121,75.13,124.26,81.33,129.51,86,136.83,91.37,143,77.18,142.47,63,142,48.83,141.27Zm31.5-31.38a.72.72,0,0,0,1.43,0,38.75,38.75,0,0,0,1-11.21c1.49.07,3,.16,4.47.28-.5,11.18-.45,22.41-.31,33.57-1.58-1.94-3.18-3.86-4.83-5.73-.06-1.61-.34-3.25-.51-4.85-.27-2.54.3-5.25-.34-7.73-.14-.56-1.09-.89-1.28-.16a19.08,19.08,0,0,0-.15,6.21c.11,1.42.16,2.83.21,4.24-.94-1-1.89-2-2.88-2.94-.61-.58-1.48-1.29-2.5-2.1a.84.84,0,0,0,.1-.41c-.22-6.79.26-13.74-.06-20.57,2.07-.07,4.11,0,5.86.09C80,102.29,79.54,106.33,80.33,109.9Zm-7.57-1.1c.32,3.08-.54,6.2,0,9.21-1.57-1.25-3.29-2.65-4.85-4.13a48,48,0,0,0,.12-6.46c-.05-2.61.47-5.33.23-7.93a19.52,19.52,0,0,1,4.63-.89A53.44,53.44,0,0,0,72.76,108.79Zm-7,2.85c-2.93-3.45-4.31-7.16-.72-10.38a7.55,7.55,0,0,1,.93-.7,37.26,37.26,0,0,0-.26,5.64C65.71,108,65.69,109.83,65.8,111.64Zm27.45,28.51c-1.4-1.61-2.77-3.26-4.12-4.92a106.1,106.1,0,0,0-.18-15.32c-.38-6.9.43-13.85.19-20.8,1.57.13,3.13.24,4.7.33C91.37,112.21,91.77,127,93.25,140.15Zm209.2-46.34c-48-2.61-96.89-3.2-144.95-1.32-21.51.84-43.3,5-64.84,3.49-8.44-.6-21.35-3.17-28.87,2.09a8.54,8.54,0,0,0-2.86,3.24,51.21,51.21,0,0,1-1.7-19.82c1-8.35,4.9-16.17,4.09-24.73-.69-7.27-2.45-14.47-3.57-21.68a50.7,50.7,0,0,1-.8-10.76c.34-5.63,4-10.45,6.65-15.22,2-3.72,12.26-3.76,15.9-4.15,4.9-.53,9.84-.65,14.76-.74,12-.21,23.92,0,35.88-.06,24.08-.09,47.58-.91,71.58,1.77,23.43,2.61,46.36.95,69.86.56,25.29-.42,50.5-1.87,75.8-1,11,.36,22,.83,32.76,3,8.14,1.66,18.19-.15,21.65,9.21,4.51,12.2-.58,27.41-2.33,39.74-.89,6.26.79,12.36,2.21,18.4a59,59,0,0,1-.38,28,15.1,15.1,0,0,0-6.35-4.58c-9.13-4-20.47-3.28-30.2-3.12C345.29,96.48,323.86,95,302.45,93.81Zm68.43,34.5a87.35,87.35,0,0,1,.71-16.45c.53-4.12,0-8.3,0-12.44l3.83,0c0,7.26.06,14.27-.37,21.57-.3,5.09.61,11.33-.27,16.44l-3.93,2.83C371.52,136.28,371.14,132.37,370.88,128.31Zm6.63-9.79c.32-6.58,0-12.65-.16-19.15,1.29,0,2.66,0,4.07.07-.87,11,1.46,22.31-.16,33.21q-2,1.49-4,2.93C377.89,130,377.24,124,377.51,118.53Zm5.85,2.32c-.27-7.08.48-14.23-.06-21.31,1.5.09,3,.23,4.53.43-.8,3.54.53,7.54.38,11.2-.22,5.36-.76,10.73-.66,16.1a.75.75,0,0,0,.1.37c-1.44,1.22-2.93,2.39-4.42,3.54A57.1,57.1,0,0,0,383.35,120.85Zm6.27-20.61a28.27,28.27,0,0,1,5.57,1.5c-.16,3.35-.81,6.66-1,10-.22,3.54.15,7-.37,10.52-1.61,1.52-3.22,2.89-4.6,4,.05-5,1.26-9.88,1.43-14.86C390.76,107.64,389.61,103.94,389.62,100.24Zm6.88,13.09c.09-3.53.7-7,.88-10.51a7.91,7.91,0,0,1,4.07,5.32c.76,4-2,8.19-5.36,11.83A46.79,46.79,0,0,0,396.5,113.33Zm-30.19,15.73c1.47-10,.17-19.71.74-29.64h2.82c-1.13,6.61-.53,13.88-1.09,20.59-.58,6.93,1.76,15.43-.32,22-1.33,1-2.65,2-4,3C365.49,139.72,365.53,134.34,366.31,129.06Zm49.64-22a1.45,1.45,0,0,0-.94,2.3c5.89,7.89,15.35,12.08,23.43,17.32a109.19,109.19,0,0,1,26,22.83c-16.8.32-33.58-.76-50.38-.75-16.34,0-33.19-.78-49.51.5,8.48-6.49,39.38-26,40.36-39.89,4.25-14.28,3.37-26.19.22-40.6,0-.08,0-.15,0-.23q30.74.27,61.48.43C449.25,81,438.39,103.31,416,107.1Z"/><path class="cls-2" d="M90.23,37.22c-1.9,2.87-2.28,6.36-3.68,9.45-.66,1.47-9.17.51-11.32.67a1.35,1.35,0,0,0-.87,2.15,24.44,24.44,0,0,0,8.47,5c3.11,1.18-1.6,9.27-1.55,12.38a1.56,1.56,0,0,0,2.49,1c1.79-1.52,3.59-3,5.32-4.6,1.16-1.05,3.22-4.94,4.58-3.5a26.81,26.81,0,0,0,9.83,6.45,1.31,1.31,0,0,0,1.77-1.38c-.74-3.57-2.78-7.06-4.12-10.41,0,0,6.59-5,7.17-5.58a1.23,1.23,0,0,0-.6-2.16c-1.07-.24-10.79-.61-10.94-.92-1.47-3.18-2.35-6.52-5-9-1.19-1.11-2.8,1-1.53,2.06,2.57,2.19,2.57,7.29,5,9.11,2.67,2,8.65-.17,11.83,1l-.3-2.08c-2.71,2-5.55,3.76-8.14,5.93a1.36,1.36,0,0,0-.41,1.57c1.28,3.18,3.75,7.5,4.42,10.75l1.77-1.38c-4.19-1.93-7.13-4.92-10.68-7.75a1.41,1.41,0,0,0-1.95.29c-3,3.46-6.48,6.15-10,9.08l2.49,1c0-3.54,2.21-8,3.31-11.32a1.51,1.51,0,0,0-.5-1.77c-3.54-2.12-7.87-2.84-11-5.74L75.6,50c3.88-.38,7.81,0,11.7-.31a1.27,1.27,0,0,0,1-.79c1.57-3.5,2.26-7.16,3.69-10.7.43-1.06-1.12-2-1.77-1Z"/><path class="cls-2" d="M361.65,49.41c1.59,2.6,4.49,4.08,6.53,6.27,1.12,1.19-2.67,7.75-3.32,9.71a1.35,1.35,0,0,0,1.76,1.73c3.69-1.54,6.1-4.88,9.24-7.17L374,60c2.77,2.45,5.91,6.07,9.35,7.44a1.57,1.57,0,0,0,2-2,123.27,123.27,0,0,0-4.58-11.89l-.75,1.82c4.07-2.08,7.91-3.65,11.06-7.08.72-.78,0-1.9-.89-2.07-3.34-.65-6.57.4-10-.16-.33-.05-1.94-7.27-2.31-8.13a1.22,1.22,0,0,0-2.1-.26c-.89,1.29-4.1,9-5.13,9-2.78-.1-6.25-.41-8.76,1a1.28,1.28,0,1,0,1.28,2.2c2.6-1.61,7.29.7,9.49-1,2.67-2.08,2.64-7.18,5.07-9.71l-2.18-.56c.76,3.12,1.26,6.26,2.22,9.32a1.29,1.29,0,0,0,1.07.81c3.35,0,7.81-.52,11,.1l-.64-2.32c-3.06,2.85-6.69,4.33-10.29,6.31a1.41,1.41,0,0,0-.75,1.82,71.2,71.2,0,0,1,4.29,12l2-2c-3.11-1.25-6.19-4.78-8.7-7a1.51,1.51,0,0,0-1.83,0c-2.93,2.16-5,5.54-8.42,7.07l1.76,1.73c1-3.44,2.76-6.63,3.88-10a1.26,1.26,0,0,0-.18-1.25c-2.41-2.57-5.4-4.39-7.79-6.93a1,1,0,0,0-1.61,1.26Z"/><text class="cls-3" transform="translate(162.6 68.6)">MODE</text></g></g></svg>